<?xml version="1.0" encoding="utf-8"?>
<!-- Generator: Adobe Illustrator 25.0.0, SVG Export Plug-In . SVG Version: 6.00 Build 0)  -->
<svg version="1.1" id="Livello_1" xmlns="http://www.w3.org/2000/svg" xmlns:xlink="http://www.w3.org/1999/xlink" x="0px" y="0px"
	 viewBox="0 0 172 90" style="enable-background:new 0 0 172 90;" xml:space="preserve">
<style type="text/css">
	.st0{fill:#171316;}
	.st1{fill:#B19A76;}
</style>
<g>
	<path class="st0" d="M86.7,48.6c-7.5,0-13.6,5.8-13.6,13c0,7.2,6.1,13,13.6,13s13.6-5.8,13.6-13C100.4,54.4,94.2,48.6,86.7,48.6
		 M95.4,66.9c-0.5,1.3-1.2,2.4-2,3.3c-0.9,0.9-1.9,1.6-3,2.1c-1.1,0.5-2.4,0.7-3.8,0.7c-1.3,0-2.5-0.3-3.7-1c-1.1-0.6-2.1-1.5-3-2.7
		c-0.8-1.1-1.5-2.4-1.9-3.9c-0.4-1.5-0.7-3-0.7-4.6c0-1.6,0.2-3,0.7-4.3c0.4-1.3,1.1-2.4,1.9-3.4c0.8-0.9,1.8-1.6,2.9-2.1
		c1.1-0.5,2.4-0.8,3.7-0.8c1.4,0,2.6,0.3,3.8,0.8c1.2,0.6,2.2,1.4,3,2.4c0.9,1.1,1.5,2.4,2,3.9c0.5,1.6,0.7,3.3,0.7,5.3
		C96.1,64.2,95.9,65.6,95.4,66.9"/>
	<path class="st0" d="M41,70.8c-0.1-3.2-0.2-6.2-0.2-9v-3.6c0-1.3,0-2.3,0-3.2c0-0.8,0-1.6,0.1-2.4c0.1-0.8,0.2-1.5,0.4-2.2
		c0.2-0.6,0.5-1.1,1-1.4v-0.2c-0.4,0-0.9,0.1-1.5,0.1c-0.8,0.1-1.3,0.1-1.7,0.1c-0.4,0-0.9,0-1.3-0.1c-0.4,0-1-0.1-1.8-0.2V49
		c0.6,0.4,0.9,1,1.1,1.5c0.2,0.6,0.3,1.2,0.3,2c0.1,1.5,0.1,3.1,0.2,4.6c0,1.6,0,3.2,0,4.7c0,4,0,7.1,0,9.1c0,0.7-0.2,1.2-0.4,1.7
		c-0.3,0.4-0.6,0.8-1.1,1.1V74c0.7-0.1,1.3-0.1,1.7-0.2c0.5,0,0.9,0,1.4,0c0.5,0,0.9,0,1.4,0c0.5,0,1.1,0.1,1.9,0.2v-0.3
		C41.5,73.1,41,72.2,41,70.8"/>
	<path class="st0" d="M129.3,73.6L129.3,73.6C129.3,73.6,129.3,73.6,129.3,73.6c-0.2-0.1-0.4-0.1-0.5-0.1c-0.2,0-0.5,0-0.9,0.1
		c-0.2,0-0.4,0-0.5,0c-0.7,0-1.5-0.3-2.3-0.8c-0.8-0.5-1.5-1.2-2.3-2.1c-0.7-0.9-1.4-1.8-2.1-2.7c-0.6-1-1.4-2.1-2.3-3.5
		c-0.3-0.4-0.5-0.8-0.7-1.1c0,0,0,0,0,0c-0.3-0.4-0.5-0.8-0.7-1l-0.1-0.1l0.1,0c0.4-0.1,0.8-0.3,1.2-0.6c1-0.7,1.8-1.5,2.4-2.6
		c0.6-1,0.8-2.1,0.8-3.2c0-1.1-0.3-2.1-0.8-3.1c-0.5-1-1.4-1.8-2.5-2.5c-0.6-0.4-1.3-0.6-2.3-0.9c-1-0.2-1.9-0.3-2.6-0.3
		c-0.6,0-1.5,0-2.8,0.1c-1.3,0.1-2.2,0.2-2.9,0.2c-0.9,0-2.2-0.1-3.9-0.2v0.3c0.7,0.4,1.2,0.8,1.4,1.3c0.3,0.5,0.4,1.2,0.4,1.9
		c0.1,1.5,0.2,3,0.2,4.6c0,1.6,0.1,3.2,0.1,4.7c0,4,0,7.1-0.1,9.1c0,0.6-0.2,1.2-0.7,1.6c-0.4,0.4-0.9,0.8-1.5,1.1V74
		c1.5-0.1,2.9-0.2,4.1-0.2c0.6,0,1.1,0,1.8,0c0.6,0,1.3,0.1,2.3,0.2v-0.3c-0.6-0.3-1.1-0.6-1.4-1c-0.3-0.4-0.4-1-0.5-1.9
		c-0.1-2.5-0.2-5.1-0.2-7.9v-0.1l0.1,0l0.4,0c0.6-0.1,1-0.1,1.3-0.1h1.2h0l0,0c0.5,0.5,1,1.2,1.5,1.8c0.5,0.7,1,1.5,1.7,2.5
		c0.8,1.3,1.6,2.3,2.2,3.2c0.6,0.8,1.3,1.6,2.1,2.3c0.8,0.7,1.7,1.3,2.7,1.7c1,0.4,2.1,0.6,3.3,0.6c0.2,0,0.6,0,0.9-0.1
		c0.4-0.1,0.8-0.2,1.2-0.3c0.4-0.1,0.7-0.3,0.9-0.4c0.1-0.1,0.2-0.1,0.2-0.2C129.5,73.7,129.3,73.6,129.3,73.6 M111.9,61.2H111
		c-0.6,0-1,0-1.4,0h-0.1v-0.1v-3.4c0-2.3,0-4,0.1-5.1c0-0.2,0-0.4,0-0.8c0-0.6,0-1,0.1-1.3l0-0.1h0.1h0.1c0.7-0.1,1.3-0.1,1.6-0.1
		c0.8,0,1.5,0,2.1,0.1c0.6,0.1,1.1,0.3,1.6,0.6c0.6,0.4,1.1,1,1.5,1.8c0.4,0.8,0.6,1.7,0.6,2.5c0,2-0.4,3.5-1.2,4.4
		C115.4,60.8,114,61.2,111.9,61.2"/>
	<path class="st0" d="M165.2,74c-0.1-0.1-0.3-0.2-0.5-0.2c-0.2,0-0.4,0.1-0.7,0.4c-0.2,0.3-0.6,0.7-1,1.3c-0.5,0.8-1,1.4-1.3,1.7
		c-0.6,0.6-1.1,0.9-1.7,1.1c-0.6,0.2-1.3,0.2-2.2,0.2c-0.6,0-4.5,0-5-0.1c-0.5-0.1-1-0.2-1.5-0.5c-0.5-0.2-0.9-0.6-1.2-1
		c-0.3-0.4-0.5-1-0.5-1.7c-0.1-2.1-0.1-3.9-0.2-5.4c0-1.5-0.1-3.1-0.1-4.9v-0.1h0.1c2,0,5.6,0.1,6.6,0.2c0.7,0.1,1.3,0.3,1.9,0.6
		c0.5,0.3,0.9,0.8,1.2,1.5h1.1c0-0.8-0.1-1.3-0.1-1.5v-1.5c0-0.6,0-1.4,0.1-2.2c0-0.4,0.1-0.8,0.1-1.1h-1.1
		c-0.5,0.9-0.9,1.5-1.4,1.7c-0.5,0.3-1,0.4-1.7,0.5c-0.3,0-3,0-3.6,0c-0.7,0-1.7,0-3.2-0.1l-0.1,0v-0.1v-2.7c0-3.1,0-5.4,0.1-6.9
		c0-0.1,0-0.2,0-0.3c0-0.2,0-0.3,0-0.5c0-0.8,0.1-1.4,0.1-1.7l0-0.1l0.1,0l1-0.1c1-0.1,1.8-0.2,2.2-0.2c1.4,0,7,0.2,7.6,0.5
		c0.7,0.3,1.2,0.8,1.5,1.5c0,0,0.1,0.1,0.1,0.2c0.1,0.3,0.2,0.5,0.3,0.6c0.1,0.1,0.3,0.2,0.6,0.2c0.2,0,0.4-0.1,0.5-0.2
		c0.1-0.1,0.2-0.2,0.2-0.2c0-0.3,0-0.8-0.1-1.4c-0.1-0.8-0.2-1.5-0.2-2.2c0-0.2-0.1-0.3-0.3-0.5c-0.2-0.1-0.5-0.2-0.9-0.3
		c-0.4-0.1-0.7-0.1-1.1-0.1c-0.3,0-0.7,0-1.2,0c-0.6,0-6.2,0.1-7.6,0.2c-0.2,0-0.5,0.1-0.8,0.1c0,0,0,0-0.1,0c-0.2,0-0.4,0-0.6,0
		c-0.5,0-1,0.1-1.4,0.1c-0.6,0-1,0-1.3,0c-0.4,0-1,0-1.8-0.1c-0.8-0.1-1.8-0.2-3-0.3l-0.4,0l0.1,0.5c0.8,0.5,1.3,1.1,1.7,1.8
		c0.4,0.7,0.6,1.5,0.6,2.4c0.1,1.9,0.1,3.9,0.2,5.9c0,2,0.1,4,0.1,6v5.4c0,1.3,0,2.9-0.1,4.9c0,0.8-0.3,1.7-0.8,2.7
		c-0.2,0.4-0.5,0.8-0.7,1.2c-0.3,0.3-0.5,0.6-0.7,0.7v0.7c0.2,0,0.3,0,0.4,0c0.9-0.1,1.7-0.2,2.2-0.3c0.6-0.1,1-0.1,1.4-0.1h2.7
		c1,0,5.4,0,6.7,0h4.5c0.9,0,1.4-0.1,1.7-0.4c0.3-0.3,0.4-0.6,0.5-1.1l0,0l0,0l0-0.1l0,0c0.1-0.6,0.4-1.5,0.9-2.6
		c0.2-0.5,0.4-0.9,0.5-1.2c0.1-0.3,0.2-0.5,0.2-0.7c0,0,0,0,0-0.1C165.3,74.1,165.2,74.1,165.2,74"/>
	<path class="st0" d="M73.7,52.5c0.1-0.5,0.4-1.2,0.9-2.2c0.4-0.9,0.7-1.5,0.8-1.9h-0.9c-0.1,0-0.3,0.1-0.6,0.2
		c-0.6,0.2-1,0.3-1.3,0.3c-0.9,0-1.7,0-2.5,0.1c-2.3,0.1-2.9,0.1-4,0.1c-1.1,0-2.5,0-4.8,0h-0.1v0c-0.9,0-5.5,0-6.5,0
		c-3.3,0-4.7,0-6.3,0c-0.4,0-0.7-0.1-0.9-0.1c-0.2-0.1-0.4-0.2-0.6-0.4h-1.2c-0.1,0.4-0.3,0.9-0.7,1.6c-0.1,0.2-0.2,0.4-0.2,0.4l0,0
		l0,0c-0.1,0.3-0.4,0.7-0.7,1.2c-0.2,0.2-0.3,0.4-0.4,0.6c-0.1,0.1-0.1,0.2-0.1,0.3c0,0,0,0,0,0c0,0,0.1,0.1,0.2,0.1
		c0.2,0.1,0.3,0.1,0.5,0.1c0.2,0,0.5-0.1,0.6-0.2c0.2-0.1,0.4-0.3,0.6-0.5c0.1,0,0.1-0.1,0.1-0.1c0,0,0.1-0.1,0.1-0.1
		c0.4-0.3,0.7-0.5,1.1-0.7c0.3-0.2,0.6-0.3,0.9-0.3c0.8-0.2,1.6-0.3,2.5-0.4c0.8-0.1,0.7-0.1,1.7-0.1h0.1l0,0.1l0,1.5
		c0,1.5,0.1,2.9,0.1,4.4v5.3c0,4,0,7-0.1,9.1c0,0.7-0.2,1.2-0.5,1.7c-0.3,0.4-0.7,0.8-1.3,1.1V74c0.8-0.1,1.5-0.1,2-0.2
		c0.6,0,1.1,0,1.6,0c0.6,0,1.1,0,1.7,0c0.6,0,1.3,0.1,2.2,0.2v-0.3c-1.1-0.6-1.7-1.6-1.8-2.9c-0.2-3.2-0.2-6.2-0.2-9v-2
		c0-0.8,0-1.5,0-2.2c0-2,0.1-3.7,0.2-5l0.2-2l0-0.1h0.1h2.4c0.3,0,1,0,2.2,0l0.1,0v0c0.8,0,2.5,0,2.5,0h0.1l0,0.1l0,1.5
		c0,1.5,0.1,2.9,0.1,4.4v5.3c0,4,0,7-0.1,9.1c0,0.7-0.2,1.2-0.5,1.7c-0.3,0.4-0.7,0.8-1.3,1.1V74c0.8-0.1,1.5-0.1,2-0.2
		c0.6,0,1.1,0,1.6,0c0.6,0,1.1,0,1.7,0c0.6,0,1.3,0.1,2.2,0.2v-0.3c-1.1-0.6-1.7-1.6-1.8-2.9c-0.2-3.2-0.2-6.2-0.2-9v-2
		c0-0.8,0-1.5,0-2.2c0-2,0.1-3.7,0.2-5l0.1-2l0-0.1h0.1h1.3c1.1,0,1.8,0,2.3,0c0.2,0,0.4,0.1,0.6,0.3c0.2,0.1,0.3,0.4,0.4,0.7
		c0,0,0,0.1,0,0.1c0,0.1,0,0.1,0,0.2c0,0.3,0.1,0.6,0.2,0.8c0.1,0.1,0.2,0.2,0.5,0.2c0.1,0,0.3,0,0.5-0.1
		C73.6,52.6,73.7,52.5,73.7,52.5"/>
	<path class="st0" d="M30.1,49.3c-0.9,0-2.1-0.1-3.7-0.3l-0.2,0.4c0.6,0.2,1,0.4,1.2,0.8c0.2,0.4,0.3,0.8,0.3,1.4
		c0,0.8-0.2,1.6-0.5,2.5c0,0,0,0,0,0c-0.2,0.6-0.3,1.1-0.4,1.6c0,0.1-0.1,0.2-0.1,0.3c-0.7,2.4-1.3,4.5-1.9,6.2
		c-0.5,1.7-1,3.2-1.4,4.6c-0.9,2.5-1.6,4.8-2.3,6.9l-0.1,0.3L21,73.6l-0.1-0.3c-1.3-3.5-2.2-6-2.7-7.8c-0.3-0.9-0.6-1.9-1-2.9
		c-0.3-1-0.7-2.1-1.1-3.1c-0.7-2.1-1.3-3.9-1.8-5.6c-0.2-0.7-0.3-1.5-0.3-2.3c0-0.9,0.2-1.6,0.7-2l-0.2-0.4
		c-1.8,0.1-3.1,0.2-3.8,0.2c-0.6,0-1.7-0.1-3.2-0.2L6.6,49l0.1,0.4c0.8,0.5,1.4,1.1,1.8,1.7c0.4,0.6,0.7,1.4,1.1,2.4l0.1,0.2
		l0.5,1.4c0.8,2.3,1.6,4.2,2.2,5.9c0.6,1.7,1.2,3.3,1.7,4.7c0.2,0.6,0.4,1.2,0.7,1.8c0,0.1,0.1,0.3,0.1,0.4c0,0.1,0.1,0.2,0.1,0.3
		c0.3,0.7,0.6,1.7,1.1,2.8c0.9,2.4,1.6,4.4,2.1,5.9c0.5,1.5,1,2.7,1.3,3.8c0.1,0.1,0.2,0.3,0.4,0.4c0.2,0.1,0.4,0.2,0.6,0.2
		c0.2,0,0.4-0.1,0.6-0.2c0.2-0.1,0.3-0.2,0.3-0.3c0.7-2.3,1.4-4.3,2-6c0.6-1.8,1.3-3.6,2-5.5c0.6-1.8,1.1-3.1,1.4-3.9
		c0.2-0.5,0.4-1.3,0.8-2.4c0.7-2.1,1.2-3.8,1.7-5.2c0.5-1.4,1-2.8,1.5-4.1c0.5-1.1,1-2.1,1.5-2.8c0.5-0.8,1.1-1.3,1.8-1.7l0.1-0.3
		c-0.5,0-1.1,0.1-1.9,0.1C31.3,49.2,30.6,49.3,30.1,49.3"/>
	<path class="st0" d="M44.1,31.7L44.1,31.7l1.9,5.5c0,0.1,0.1,0.2,0.1,0.4c0,0.2,0.1,0.4,0.1,0.6c0,0.3-0.2,0.7-0.5,1.1
		c-0.1,0.1-0.2,0.3-0.2,0.4c-0.1,0.1-0.1,0.2-0.1,0.2v0.2c0.7-0.1,1.3-0.2,1.8-0.2c0.5,0,1-0.1,1.6-0.1c0.4,0,0.9,0,1.4,0.1
		c0.5,0,1,0.1,1.7,0.2v-0.2c-0.5-0.2-1-0.6-1.3-1c-0.4-0.4-0.7-1-0.9-1.7l-6-15.5l-1.2-3h-1c-1,0-2.1-0.1-3.4-0.2l0,0.1
		c0.6,0.4,1,0.9,1.4,1.4c0.3,0.5,0.5,1.1,0.5,1.6c0,0.2,0,0.3,0,0.4l-6,15.1c-0.3,0.8-0.7,1.4-1.1,1.8c-0.4,0.4-1,0.8-1.6,1
		l-0.2,0.2c0.6-0.1,1-0.1,1.4-0.2c0.4,0,0.8,0,1.2,0c0.3,0,0.7,0,1.1,0c0.4,0,0.8,0.1,1.3,0.2V40c-0.3-0.3-0.5-0.7-0.5-1.1
		c0-0.2,0-0.4,0.1-0.5v0c0-0.2,0.1-0.4,0.2-0.6v0v0l0,0l2.2-5.9l0-0.1l0.1,0c0.8-0.1,1.8-0.1,3-0.1C42.1,31.5,43,31.6,44.1,31.7
		L44.1,31.7z M43.6,30.3L43.6,30.3v0.2l-0.1,0c-1,0-1.8,0-2.3,0c-0.5,0-1.2,0-2.3,0l-0.1,0v-0.1v-0.1v0l0,0l2.4-6l0.1-0.2l0.1,0.2
		L43.6,30.3L43.6,30.3L43.6,30.3z"/>
	<path class="st0" d="M54.4,21.7c0.1,1.3,0.1,2.6,0.1,4c0,1.4,0.1,2.7,0.1,4v3.7c0,1.6,0,2.8,0,3.7c0,0.6-0.2,1.1-0.6,1.6
		c-0.4,0.5-0.8,0.9-1.2,1.1V40c0.6-0.1,1.2-0.1,1.7-0.1c0.6,0,1.1,0,1.5,0c0.6,0,1.4,0,2.6,0.1c1.3,0.1,2.2,0.1,2.7,0.1
		c1.8,0,2.4-0.3,3.8-0.9c1.5-0.6,2.7-1.4,3.8-2.5c1.1-1.1,1.9-2.3,2.4-3.8c0.6-1.4,0.8-3,0.8-4.6c0-1.4-0.3-2.7-0.8-3.9
		c-0.6-1.2-1.3-2.2-2.3-3.1c-1-0.9-2.1-1.5-3.5-2c-1.3-0.5-2.7-0.7-4.1-0.7c-0.7,0-0.3,0-0.8,0c-0.1,0-0.2,0-0.2,0c0,0-0.1,0-0.1,0
		c-0.4,0-1,0-1.5,0.1c-0.6,0-1.1,0.1-1.6,0.1l0,0c-0.4,0-0.9,0-1.3,0c-0.5,0-1,0-1.7-0.1c-0.6,0-1.2-0.1-1.8-0.1v0.1
		C53.6,19.6,54.3,20.6,54.4,21.7 M57.5,26.5c0-1.1,0-2,0-2.7c0-0.7,0-1.4,0.1-2.1c0-0.1,0-0.2,0-0.4c0-0.4,0-0.8,0.1-1l0,0l0,0
		c0.1-0.1,0.3-0.1,0.6-0.2c0.3,0,0.6-0.1,1-0.1c0.8-0.1,0.9-0.1,2.2-0.1c1.1,0,2,0.2,2.9,0.5c0.9,0.3,1.7,0.9,2.4,1.7
		c0.7,0.8,1.2,1.9,1.6,3.2c0.4,1.3,0.6,2.7,0.6,4c0,1.3-0.2,2.5-0.6,3.7c-0.4,1.2-0.9,2.2-1.6,3c-0.7,0.9-1.5,1.5-2.4,2
		c-0.9,0.5-1.9,0.7-2.9,0.7c-1.3,0-1.3-0.1-2.1-0.2c-0.7-0.1-1.3-0.3-1.7-0.7l0,0v0v-0.3c0,0,0,0,0-0.1c0-0.1,0-0.1,0-0.2
		c-0.1-2.7-0.2-5.3-0.2-7.7V26.5z"/>
	<path class="st0" d="M163.8,38.9c-0.4-0.4-0.7-1-1-1.7l-6.2-15.5l-1.2-3h-1c-1.1,0-2.2-0.1-3.5-0.2l0,0.1c0.6,0.4,1.1,0.9,1.4,1.4
		c0.4,0.5,0.6,1.1,0.6,1.6c0,0.2,0,0.3-0.1,0.4l-6.2,15.1c-0.3,0.8-0.7,1.4-1.2,1.8c-0.5,0.4-1,0.8-1.7,1l-0.2,0.2
		c0.6-0.1,1.1-0.1,1.4-0.2c0.4,0,0.9,0,1.3,0c0.4,0,0.7,0,1.1,0c0.4,0,0.8,0.1,1.4,0.2V40c-0.3-0.3-0.5-0.7-0.5-1.1
		c0-0.2,0-0.4,0.1-0.5c0-0.2,0.1-0.4,0.2-0.6v0v0l0,0l2.3-5.9l0-0.1l0.1,0c0.9-0.1,1.9-0.1,3.1-0.1c0.9,0,1.8,0,2.9,0.1l0.1,0l0,0.1
		l2,5.5c0,0.1,0.1,0.2,0.1,0.4c0,0.2,0.1,0.4,0.1,0.6c0,0.3-0.2,0.7-0.5,1.1c-0.1,0.1-0.2,0.3-0.2,0.4c-0.1,0.1-0.1,0.2-0.1,0.2v0.2
		c0.7-0.1,1.3-0.2,1.8-0.2c0.5,0,1.1-0.1,1.6-0.1c0.4,0,0.9,0,1.5,0.1c0.5,0,1.1,0.1,1.8,0.2v-0.2C164.7,39.7,164.2,39.3,163.8,38.9
		 M156.6,30.3L156.6,30.3v0.2l-0.1,0c-1.1,0-1.9,0-2.4,0c-0.5,0-1.3,0-2.3,0l-0.1,0v-0.1v-0.1v0l0,0l2.5-6l0.1-0.2l0.1,0.2
		L156.6,30.3L156.6,30.3L156.6,30.3z"/>
	<path class="st0" d="M141.7,18.6c-0.8,0.1-1.3,0.1-1.7,0.1c-0.1,0-0.4,0-0.7-0.1c-0.5-0.1-1-0.2-1.4-0.2v0.2
		c0.5,0.4,0.9,0.8,1.1,1.3c0.2,0.5,0.3,1,0.3,1.7v0c0,0,0,0,0,0c0.1,1.3,0.1,2.6,0.2,4c0,1.4,0,2.7,0,4v3.2v1.6v0.3l-0.2-0.2
		l-12.8-15.9l0,0l0,0h0l0,0l0,0c-0.8,0.1-1.3,0.1-1.7,0.1c-0.1,0-0.4,0-0.7-0.1c-0.4-0.1-0.8-0.1-1.2-0.2c0,0,0,0,0,0c0,0,0,0,0,0
		c-0.1,0-0.2,0-0.2,0v0.2c0.5,0.4,0.9,0.8,1.1,1.2c0.2,0.5,0.2,1,0.3,1.7v0v0v0c0,0.2,0,0.4,0,0.5c0,0.5,0,1.2,0,2.1
		c0,0.4,0,0.9,0,1.4v0c0,0.4,0,0.8,0,1.3c0,1.2,0,2.1,0,2.6c0,3.5,0,6.1-0.1,7.8c0,0.6-0.2,1.1-0.4,1.5c-0.3,0.4-0.6,0.7-1,0.9V40
		c0.7-0.1,1.2-0.1,1.4-0.1c0.2,0,0.5,0,0.8,0c0.5,0,0.9,0,1.4,0c0.5,0,1.1,0.1,1.9,0.1v-0.2c-1-0.5-1.5-1.3-1.5-2.5
		c-0.1-2.7-0.2-5.3-0.2-7.7v-3.5v-1.9v-1.1l0.4,0.5L140,39.8c0.2,0.2,0.3,0.4,0.5,0.5c0.2,0.2,0.4,0.2,0.5,0.2
		c0.3,0,0.4-0.1,0.5-0.1c0,0,0,0,0,0c0.1-0.1,0.1-0.3,0.1-0.6c0-0.1,0-0.4,0-0.7l0-0.3c0-0.6-0.1-1.6-0.1-3c0-0.6,0-1.8,0-3.4
		c0-0.2,0-0.4,0-0.6c0-0.9,0-1.7,0-2.2v-3.1c0-1.1,0-2,0-2.7c0-0.7,0-1.4,0.1-2.1c0.1-0.7,0.2-1.3,0.4-1.9c0.2-0.5,0.5-1,1-1.2v-0.2
		C142.8,18.5,142.3,18.6,141.7,18.6"/>
	<path class="st0" d="M118.5,18.6c-0.8,0.1-1.3,0.1-1.7,0.1c-0.1,0-0.4,0-0.7-0.1c-0.5-0.1-1-0.2-1.4-0.2v0.2
		c0.5,0.4,0.9,0.8,1.1,1.3c0.2,0.5,0.3,1,0.3,1.7v0c0,0,0,0,0,0c0.1,1.3,0.1,2.6,0.2,4c0,1.4,0,2.7,0,4v3.2v1.6v0.3l-0.2-0.2
		l-12.8-15.9l0,0l0,0h0l0,0l0,0c-0.8,0.1-1.3,0.1-1.7,0.1c-0.1,0-0.4,0-0.7-0.1c-0.4-0.1-0.8-0.1-1.2-0.2c0,0,0,0,0,0c0,0,0,0,0,0
		c-0.1,0-0.1,0-0.2,0v0.2c0.5,0.4,0.9,0.8,1.1,1.2c0.2,0.5,0.2,1,0.3,1.7v0v0v0c0,0.2,0,0.4,0,0.5c0,0.5,0,1.2,0,2.1
		c0,0.4,0,0.9,0,1.4v0c0,0.4,0,0.8,0,1.3c0,1.2,0,2.1,0,2.6c0,3.5,0,6.1-0.1,7.8c0,0.6-0.2,1.1-0.4,1.5c-0.3,0.4-0.6,0.7-1,0.9V40
		c0.7-0.1,1.2-0.1,1.4-0.1c0.2,0,0.5,0,0.8,0c0.5,0,0.9,0,1.4,0c0.5,0,1.1,0.1,1.9,0.1v-0.2c-1-0.5-1.5-1.3-1.5-2.5
		c-0.1-2.7-0.2-5.3-0.2-7.7v-3.5v-1.9v-1.1l0.4,0.5l13.5,16.1c0.2,0.2,0.3,0.4,0.5,0.5c0.2,0.2,0.4,0.2,0.5,0.2
		c0.3,0,0.4-0.1,0.5-0.1c0,0,0,0,0,0c0.1-0.1,0.1-0.3,0.1-0.6c0-0.1,0-0.4,0-0.7l0-0.3c0-0.6-0.1-1.6-0.1-3c0-0.6,0-1.8,0-3.4
		c0-0.2,0-0.4,0-0.6c0-0.9,0-1.7,0-2.2v-3.1c0-1.1,0-2,0-2.7c0-0.7,0-1.4,0.1-2.1c0.1-0.7,0.2-1.3,0.4-1.9c0.2-0.5,0.5-1,1-1.2v-0.2
		C119.6,18.5,119.1,18.6,118.5,18.6"/>
	<path class="st0" d="M9.3,40.1c0.4,0,1,0,1.6,0.1c0.6,0,1.1,0.1,1.7,0.2l-0.1-0.2c-0.5-0.2-0.8-0.5-1-0.9c-0.2-0.4-0.3-0.8-0.3-1.4
		c0-0.3,0-0.4,0-0.5l0.2-10.8l0-0.3l0.1,0.3c0.3,0.6,1,2.2,2.2,4.7c0.4,0.9,0.8,1.8,1.3,2.9c0.2,0.4,0.3,0.8,0.5,1.1c0,0,0,0,0,0
		c0.4,1,0.8,1.7,1,2.3c0.3,0.7,0.6,1.2,0.7,1.5c0.1,0.1,0.1,0.2,0.2,0.3c0.1,0.1,0.1,0.2,0.2,0.3c0.1,0.2,0.2,0.3,0.2,0.5
		c0,0,0,0,0,0c0.1,0.1,0.2,0.2,0.2,0.3c0.1,0.1,0.2,0.1,0.4,0.1c0.2,0,0.3,0,0.4-0.1c0.1-0.1,0.2-0.1,0.2-0.2l5.4-13.5l0.1-0.3
		l0,0.4l0.4,11.7l0,0v0v0.1c0,0,0,0.1,0,0.1c0,0.3-0.1,0.5-0.2,0.6c-0.1,0.1-0.3,0.3-0.5,0.5c-0.1,0.1-0.2,0.2-0.3,0.3
		c-0.1,0.1-0.1,0.1-0.1,0.2v0.3c0.7-0.1,1.3-0.2,1.8-0.2c0.5,0,1.1-0.1,1.6-0.1c0.5,0,1,0,1.5,0.1c0.5,0,1.1,0.1,1.7,0.2v-0.2
		c-0.6-0.3-1.1-0.6-1.4-1c-0.4-0.5-0.6-1-0.7-1.7l-1.1-15.7l0,0v0c0,0,0-0.1,0-0.2l0,0v0v-0.2c0-0.5,0.1-1.1,0.4-1.6
		c0.3-0.5,0.6-0.9,1.1-1.1v-0.1c-0.1,0-0.3,0-0.4,0c-0.2,0-0.4,0-0.6,0c-0.6,0-1.1,0.1-1.3,0.1c-0.2,0-0.5,0-0.9,0l-1.3,3.1
		l-5.4,13.3l-0.1,0.2l-0.1-0.2l-7.3-16.4c-0.7,0-1.2,0-1.7,0c-0.4,0-1-0.1-1.6-0.1v0.2c1,0.8,1.6,1.7,1.6,2.7v0l0,0L8.9,36.7
		c-0.1,0.9-0.3,1.6-0.7,2.2c-0.4,0.6-0.8,1-1.4,1.2l-0.2,0.2c0.6-0.1,1-0.1,1.4-0.2C8.5,40.1,8.9,40.1,9.3,40.1"/>
	<path class="st0" d="M132.3,73.8c0.6-0.1,1.1-0.1,1.6-0.1c0.5,0,0.9,0,1.4,0c0.5,0,1,0,1.5,0c0.5,0,1.1,0.1,1.9,0.1v-0.2
		c-1-0.5-1.5-1.3-1.6-2.5c-0.1-2.8-0.2-5.3-0.2-7.7v-3.1c0-1.1,0-2,0-2.7c0-0.1,0-0.3,0-0.6c0-1.4,0-4.6,0.1-5.2
		c0-0.7,0.2-1.3,0.4-1.9c0.2-0.5,0.6-1,1-1.2v-0.2c-0.4,0-0.9,0.1-1.5,0.1c-0.8,0.1-1.3,0.1-1.7,0.1c-0.4,0-0.9,0-1.4-0.1
		c-0.4,0-1-0.1-1.8-0.1v0.2c0.6,0.4,0.9,0.8,1.1,1.3c0.2,0.5,0.3,1.1,0.3,1.7c0,0.8,0.1,3.2,0.1,5.1c0,1.1,0,2.1,0,2.6
		c0,1.4,0.1,2.7,0.1,4.1c0,3.5,0,6.1-0.1,7.8c0,0.6-0.2,1.1-0.4,1.5c-0.3,0.4-0.6,0.7-1.1,1"/>
	<path class="st0" d="M85.9,18.5c-6.2,0-11.3,4.8-11.3,10.7c0,5.9,5.1,10.7,11.3,10.7c6.2,0,11.3-4.8,11.3-10.7
		C97.2,23.3,92.1,18.5,85.9,18.5 M93.1,33.7c-0.4,1.1-1,2-1.7,2.7c-0.7,0.7-1.6,1.3-2.5,1.7c-1,0.4-2,0.6-3.1,0.6
		c-1.1,0-2.1-0.3-3-0.8c-0.9-0.5-1.8-1.3-2.5-2.2c-0.7-0.9-1.2-2-1.6-3.2c-0.4-1.2-0.6-2.5-0.6-3.8c0-1.3,0.2-2.5,0.6-3.6
		c0.4-1.1,0.9-2,1.6-2.8c0.7-0.8,1.5-1.4,2.4-1.8c0.9-0.4,2-0.6,3.1-0.6c1.1,0,2.2,0.2,3.1,0.7c1,0.5,1.8,1.1,2.5,2
		c0.7,0.9,1.3,2,1.7,3.3c0.4,1.3,0.6,2.7,0.6,4.3C93.7,31.4,93.5,32.6,93.1,33.7"/>
	<g>
		<path class="st1" d="M83.4,33.7c0,0,0.3,0,0.4,0c0.3,0,0.5-0.1,0.7-0.1c0.2,0,0.3,0,0.4,0h0.8c0.3,0,0.7,0,1.1,0h1.4
			c0.3,0,0.6-0.1,0.7-0.2c0.1-0.1,0.2-0.3,0.2-0.4l0,0l0,0c0-0.1,0.1-0.3,0.3-0.7c0.2-0.4,0.2-0.5,0.2-0.6c0-0.2-0.1-0.2-0.2-0.3
			c-0.1-0.1-0.2-0.1-0.3-0.1c-0.1,0-0.3,0.1-0.4,0.2c-0.1,0.1-0.2,0.2-0.3,0.4c-0.2,0.3-0.3,0.4-0.4,0.4c-0.1,0.1-0.3,0.2-0.4,0.2
			c-0.2,0-0.4,0.1-0.6,0.1c-0.2,0-0.3,0-0.5,0c-0.1,0-0.3-0.1-0.4-0.1c-0.1-0.1-0.2-0.1-0.3-0.2c-0.1-0.1-0.1-0.2-0.1-0.3
			c0-0.6,0-1.1-0.1-1.5c0-0.3,0-0.7,0-1.1c0.5,0,0.9,0,1.1,0c0.2,0,0.4,0.1,0.5,0.1c0.1,0,0.2,0.1,0.3,0.3l0.1,0.1h0.8l0-0.3
			c0-0.2,0-0.4,0-0.4v-0.4c0-0.2,0-0.4,0-0.6l0-0.1c0-0.1,0-0.2,0-0.3l0-0.3h-0.8l-0.1,0.1c-0.2,0.3-0.3,0.4-0.3,0.4
			c-0.1,0.1-0.2,0.1-0.4,0.1c-0.1,0-0.2,0-0.4,0c-0.2,0-0.4,0-0.8,0v-0.5c0-0.9,0-1.5,0-1.9l0-0.3c0-0.1,0-0.2,0-0.2l0.1,0
			c0.3,0,0.5,0,0.7,0c0.5,0,0.8,0.1,0.9,0.1c0.2,0.1,0.3,0.2,0.4,0.3c0,0.1,0.1,0.2,0.2,0.3c0.1,0.1,0.2,0.1,0.4,0.1
			c0.1,0,0.3,0,0.3-0.1c0,0,0.1-0.1,0.1-0.3c0-0.1,0-0.2,0-0.4c0-0.2,0-0.4,0-0.6c0-0.1,0-0.3-0.2-0.4c-0.1,0-0.2-0.1-0.4-0.1
			c-0.1,0-0.2,0-0.4,0c-0.1,0-0.2,0-0.4,0c-0.2,0-0.6,0-1,0.1c-0.1,0-0.1,0-0.3,0c-0.2,0-0.5,0-0.6,0c-0.2,0-0.3,0-0.4,0
			c-0.1,0-0.3,0-0.6,0c-0.2,0-0.6-0.1-0.9-0.1l-0.5,0l0.1,0.6l0.1,0.1c0.2,0.1,0.4,0.3,0.4,0.4c0.1,0.2,0.1,0.3,0.2,0.5
			c0,0.5,0,1.1,0.1,1.6c0,0.6,0,1.1,0,1.7v1.5c0,0.4,0,0.8,0,1.3c0,0.2-0.1,0.4-0.2,0.6c-0.1,0.1-0.1,0.2-0.2,0.3
			c-0.1,0.1-0.1,0.1-0.2,0.2l-0.1,0.1v0.4L83.4,33.7z"/>
		<path class="st1" d="M83.4,86.8l0.3,0c0.1,0,0.1,0,0.2,0c0.3,0,0.5-0.1,0.7-0.1c0.2,0,0.3,0,0.4,0h0.8c0.3,0,0.7,0,1.1,0h1.4
			c0.3,0,0.6-0.1,0.7-0.2c0.1-0.1,0.2-0.3,0.2-0.4l0,0l0,0c0-0.1,0.1-0.3,0.3-0.7c0.2-0.4,0.2-0.6,0.2-0.6c0-0.2-0.1-0.3-0.2-0.3
			c-0.1-0.1-0.2-0.1-0.3-0.1c-0.1,0-0.3,0.1-0.4,0.2c-0.1,0.1-0.2,0.2-0.3,0.4c-0.2,0.2-0.3,0.4-0.4,0.4c-0.1,0.1-0.3,0.2-0.4,0.2
			c-0.2,0-0.4,0.1-0.6,0.1c-0.2,0-0.3,0-0.5,0c-0.1,0-0.3-0.1-0.4-0.1c-0.1-0.1-0.2-0.1-0.3-0.2c-0.1-0.1-0.1-0.2-0.1-0.3
			c0-0.6,0-1.1-0.1-1.5c0-0.3,0-0.7,0-1.1c0.5,0,0.9,0,1.1,0c0.2,0,0.4,0.1,0.5,0.1c0.1,0,0.2,0.2,0.3,0.3l0.1,0.1h0.8l0-0.3
			c0-0.2,0-0.4,0-0.4v-0.4c0-0.2,0-0.4,0-0.6c0-0.1,0-0.2,0-0.3l0-0.3h-0.8l-0.1,0.1c-0.2,0.3-0.3,0.4-0.3,0.4
			c-0.1,0.1-0.2,0.1-0.4,0.1c-0.1,0-0.2,0-0.4,0c-0.2,0-0.4,0-0.8,0v-0.5c0-0.9,0-1.5,0-1.9l0-0.3c0-0.1,0-0.2,0-0.2l0.1,0
			c0.3,0,0.5,0,0.7,0c0.5,0,0.8,0.1,0.9,0.1c0.2,0.1,0.3,0.2,0.4,0.3c0,0.1,0.1,0.2,0.2,0.3c0.1,0.1,0.2,0.1,0.4,0.1
			c0.1,0,0.2,0,0.3-0.1c0,0,0.1-0.1,0.1-0.3c0-0.1,0-0.2,0-0.4c0-0.2,0-0.4,0-0.6c0-0.1,0-0.3-0.2-0.4c-0.1-0.1-0.2-0.1-0.4-0.1
			c-0.1,0-0.2,0-0.4,0c-0.1,0-0.2,0-0.4,0c-0.2,0-0.5,0-1,0.1c-0.1,0-0.2,0-0.3,0c-0.2,0-0.5,0-0.6,0c-0.2,0-0.3,0-0.4,0
			c-0.1,0-0.3,0-0.6,0c-0.2,0-0.6-0.1-0.9-0.1l-0.5,0l0.1,0.6l0.1,0.1c0.2,0.1,0.4,0.2,0.4,0.4c0.1,0.2,0.1,0.3,0.2,0.5
			c0,0.5,0,1.1,0.1,1.6c0,0.6,0,1.1,0,1.7v1.5c0,0.3,0,0.8,0,1.3c0,0.2-0.1,0.4-0.2,0.6c-0.1,0.1-0.1,0.2-0.2,0.3
			c-0.1,0.1-0.1,0.1-0.2,0.2l-0.1,0.1V86.8z"/>
		<path class="st1" d="M85.9,15.5c-0.2,0-0.6,0-1.1-0.1c-0.4,0-0.8-0.1-1-0.1c-0.2,0-0.4,0-0.6,0c-0.2,0-0.5,0-0.7,0.1l-0.3,0v-0.6
			l0.1-0.1c0.1-0.1,0.3-0.2,0.4-0.4c0.1-0.2,0.2-0.3,0.2-0.5c0-0.4,0-0.9,0-1.5v-1.5c0-0.5,0-1.1,0-1.7c0-0.6,0-1.1-0.1-1.6
			c0-0.3-0.2-0.7-0.7-1l-0.1-0.1V6l0.3,0c0.2,0,0.5,0,0.7,0.1c0.3,0,0.5,0,0.6,0c0.2,0,0.4,0,0.5,0c0.2,0,0.4,0,0.6,0l0.7,0
			c0.2,0,0.4,0,0.7,0c0.6,0,1.2,0.1,1.7,0.3c0.6,0.2,1,0.5,1.4,0.9c0.4,0.4,0.7,0.8,1,1.4c0.2,0.5,0.3,1.1,0.3,1.7
			c0,0.7-0.1,1.4-0.3,2c-0.2,0.6-0.6,1.2-1,1.6c-0.4,0.5-1,0.8-1.6,1.1C87.3,15.4,86.6,15.5,85.9,15.5 M84.7,14.1
			c0.1,0.1,0.3,0.1,0.4,0.1c0.3,0,0.7,0.1,1.2,0.1c0.3,0,0.7-0.1,1-0.3c0.3-0.2,0.6-0.4,0.9-0.8c0.3-0.3,0.5-0.7,0.6-1.2
			c0.1-0.4,0.2-0.9,0.2-1.4c0-0.5-0.1-1.1-0.2-1.6c-0.1-0.5-0.3-0.9-0.6-1.2c-0.2-0.3-0.5-0.5-0.8-0.6c-0.3-0.1-0.7-0.2-1-0.2
			c-0.5,0-0.9,0-1.3,0c-0.2,0-0.3,0-0.4,0c0,0.1,0,0.2,0,0.3c0,0.1,0,0.1,0,0.1c0,0.3,0,0.6,0,0.8c0,0.3,0,0.7,0,1.1v1.3
			C84.7,11.9,84.7,13,84.7,14.1L84.7,14.1z"/>
		<path class="st1" d="M83.5,66.2l0.3,0c0.6-0.1,1-0.1,1.2-0.1c0.2,0,0.5,0,0.9,0c0.3,0,0.5,0,0.6,0c0.2,0,0.4,0,0.6,0
			c0.2,0,0.5,0,0.9,0c0.2,0,0.3,0,0.4,0c0.3,0,0.5-0.1,0.6-0.2c0.1-0.1,0.2-0.3,0.2-0.4c0-0.1,0.1-0.3,0.2-0.7
			c0.1-0.2,0.1-0.3,0.2-0.4c0-0.1,0.1-0.2,0.1-0.3c0-0.1,0-0.2-0.1-0.3c-0.1-0.1-0.2-0.2-0.4-0.2c-0.1,0-0.3,0-0.4,0.2
			c-0.1,0.1-0.2,0.2-0.3,0.4c-0.2,0.3-0.3,0.5-0.3,0.5c-0.2,0.1-0.3,0.2-0.6,0.3c-0.2,0.1-0.4,0.1-0.6,0.1c-0.3,0-0.5-0.1-0.7-0.2
			c-0.1-0.1-0.2-0.3-0.2-0.5c0-0.6,0-1.1-0.1-1.5c0-0.4,0-0.9,0-1.4v-1.3v-1.1c0-0.3,0-0.6,0-0.8c0-0.3,0.1-0.5,0.1-0.7
			c0.1-0.2,0.1-0.3,0.3-0.4l0.1-0.1v-0.5l-0.3,0c-0.1,0-0.3,0-0.6,0c-0.3,0-0.5,0-0.6,0c-0.2,0-0.3,0-0.5,0l-1-0.1v0.5l0.1,0.1
			c0.2,0.1,0.3,0.3,0.3,0.4c0.1,0.2,0.1,0.4,0.1,0.6c0,0.5,0,1.1,0.1,1.6c0,0.6,0,1.1,0,1.6v1.5c0,0.4,0,0.8,0,1.3
			c0,0.1,0,0.2-0.1,0.3c0,0.1-0.1,0.2-0.1,0.4c-0.1,0.1-0.1,0.2-0.2,0.3c-0.1,0.1-0.1,0.1-0.2,0.1l-0.1,0.1L83.5,66.2z"/>
		<path class="st1" d="M83.5,49l0.3,0c0.6-0.1,1-0.1,1.2-0.1c0.2,0,0.5,0,0.9,0c0.3,0,0.5,0,0.6,0c0.2,0,0.4,0,0.6,0
			c0.2,0,0.5,0,0.9,0c0.2,0,0.3,0,0.4,0c0.3,0,0.5-0.1,0.6-0.2c0.1-0.1,0.2-0.3,0.2-0.4c0-0.1,0.1-0.3,0.2-0.7
			c0.1-0.2,0.1-0.3,0.2-0.4c0-0.1,0.1-0.2,0.1-0.3c0-0.1,0-0.2-0.1-0.3c-0.1-0.1-0.2-0.2-0.4-0.2c-0.1,0-0.3,0-0.4,0.2
			c-0.1,0.1-0.2,0.2-0.3,0.4c-0.2,0.3-0.3,0.5-0.3,0.5c-0.2,0.1-0.3,0.2-0.6,0.3c-0.2,0.1-0.4,0.1-0.6,0.1c-0.3,0-0.5-0.1-0.7-0.2
			c-0.1-0.1-0.2-0.3-0.2-0.5c0-0.6,0-1.1-0.1-1.5c0-0.4,0-0.9,0-1.4v-1.3V42c0-0.3,0-0.6,0-0.8c0-0.3,0.1-0.5,0.1-0.7
			c0.1-0.2,0.1-0.3,0.3-0.4l0.1-0.1v-0.5l-0.3,0c-0.1,0-0.3,0-0.6,0c-0.3,0-0.5,0-0.6,0c-0.2,0-0.3,0-0.5,0l-1-0.1V40l0.1,0.1
			c0.2,0.1,0.3,0.3,0.3,0.4c0.1,0.2,0.1,0.4,0.1,0.6c0,0.5,0,1.1,0.1,1.6c0,0.6,0,1.1,0,1.6v1.5c0,0.4,0,0.8,0,1.3
			c0,0.1,0,0.2-0.1,0.3c0,0.1-0.1,0.2-0.1,0.4c-0.1,0.1-0.1,0.2-0.2,0.3c-0.1,0.1-0.1,0.1-0.2,0.1l-0.1,0.1L83.5,49z"/>
	</g>
	<g>
		<path class="st1" d="M83.4,33.7c0,0,0.3,0,0.4,0c0.3,0,0.5-0.1,0.7-0.1c0.2,0,0.3,0,0.4,0h0.8c0.3,0,0.7,0,1.1,0h1.4
			c0.3,0,0.6-0.1,0.7-0.2c0.1-0.1,0.2-0.3,0.2-0.4l0,0l0,0c0-0.1,0.1-0.3,0.3-0.7c0.2-0.4,0.2-0.5,0.2-0.6c0-0.2-0.1-0.2-0.2-0.3
			c-0.1-0.1-0.2-0.1-0.3-0.1c-0.1,0-0.3,0.1-0.4,0.2c-0.1,0.1-0.2,0.2-0.3,0.4c-0.2,0.3-0.3,0.4-0.4,0.4c-0.1,0.1-0.3,0.2-0.4,0.2
			c-0.2,0-0.4,0.1-0.6,0.1c-0.2,0-0.3,0-0.5,0c-0.1,0-0.3-0.1-0.4-0.1c-0.1-0.1-0.2-0.1-0.3-0.2c-0.1-0.1-0.1-0.2-0.1-0.3
			c0-0.6,0-1.1-0.1-1.5c0-0.3,0-0.7,0-1.1c0.5,0,0.9,0,1.1,0c0.2,0,0.4,0.1,0.5,0.1c0.1,0,0.2,0.1,0.3,0.3l0.1,0.1h0.8l0-0.3
			c0-0.2,0-0.4,0-0.4v-0.4c0-0.2,0-0.4,0-0.6l0-0.1c0-0.1,0-0.2,0-0.3l0-0.3h-0.8l-0.1,0.1c-0.2,0.3-0.3,0.4-0.3,0.4
			c-0.1,0.1-0.2,0.1-0.4,0.1c-0.1,0-0.2,0-0.4,0c-0.2,0-0.4,0-0.8,0v-0.5c0-0.9,0-1.5,0-1.9l0-0.3c0-0.1,0-0.2,0-0.2l0.1,0
			c0.3,0,0.5,0,0.7,0c0.5,0,0.8,0.1,0.9,0.1c0.2,0.1,0.3,0.2,0.4,0.3c0,0.1,0.1,0.2,0.2,0.3c0.1,0.1,0.2,0.1,0.4,0.1
			c0.1,0,0.3,0,0.3-0.1c0,0,0.1-0.1,0.1-0.3c0-0.1,0-0.2,0-0.4c0-0.2,0-0.4,0-0.6c0-0.1,0-0.3-0.2-0.4c-0.1,0-0.2-0.1-0.4-0.1
			c-0.1,0-0.2,0-0.4,0c-0.1,0-0.2,0-0.4,0c-0.2,0-0.6,0-1,0.1c-0.1,0-0.1,0-0.3,0c-0.2,0-0.5,0-0.6,0c-0.2,0-0.3,0-0.4,0
			c-0.1,0-0.3,0-0.6,0c-0.2,0-0.6-0.1-0.9-0.1l-0.5,0l0.1,0.6l0.1,0.1c0.2,0.1,0.4,0.3,0.4,0.4c0.1,0.2,0.1,0.3,0.2,0.5
			c0,0.5,0,1.1,0.1,1.6c0,0.6,0,1.1,0,1.7v1.5c0,0.4,0,0.8,0,1.3c0,0.2-0.1,0.4-0.2,0.6c-0.1,0.1-0.1,0.2-0.2,0.3
			c-0.1,0.1-0.1,0.1-0.2,0.2l-0.1,0.1v0.4L83.4,33.7z"/>
		<path class="st1" d="M83.4,86.8l0.3,0c0.1,0,0.1,0,0.2,0c0.3,0,0.5-0.1,0.7-0.1c0.2,0,0.3,0,0.4,0h0.8c0.3,0,0.7,0,1.1,0h1.4
			c0.3,0,0.6-0.1,0.7-0.2c0.1-0.1,0.2-0.3,0.2-0.4l0,0l0,0c0-0.1,0.1-0.3,0.3-0.7c0.2-0.4,0.2-0.6,0.2-0.6c0-0.2-0.1-0.3-0.2-0.3
			c-0.1-0.1-0.2-0.1-0.3-0.1c-0.1,0-0.3,0.1-0.4,0.2c-0.1,0.1-0.2,0.2-0.3,0.4c-0.2,0.2-0.3,0.4-0.4,0.4c-0.1,0.1-0.3,0.2-0.4,0.2
			c-0.2,0-0.4,0.1-0.6,0.1c-0.2,0-0.3,0-0.5,0c-0.1,0-0.3-0.1-0.4-0.1c-0.1-0.1-0.2-0.1-0.3-0.2c-0.1-0.1-0.1-0.2-0.1-0.3
			c0-0.6,0-1.1-0.1-1.5c0-0.3,0-0.7,0-1.1c0.5,0,0.9,0,1.1,0c0.2,0,0.4,0.1,0.5,0.1c0.1,0,0.2,0.2,0.3,0.3l0.1,0.1h0.8l0-0.3
			c0-0.2,0-0.4,0-0.4v-0.4c0-0.2,0-0.4,0-0.6c0-0.1,0-0.2,0-0.3l0-0.3h-0.8l-0.1,0.1c-0.2,0.3-0.3,0.4-0.3,0.4
			c-0.1,0.1-0.2,0.1-0.4,0.1c-0.1,0-0.2,0-0.4,0c-0.2,0-0.4,0-0.8,0v-0.5c0-0.9,0-1.5,0-1.9l0-0.3c0-0.1,0-0.2,0-0.2l0.1,0
			c0.3,0,0.5,0,0.7,0c0.5,0,0.8,0.1,0.9,0.1c0.2,0.1,0.3,0.2,0.4,0.3c0,0.1,0.1,0.2,0.2,0.3c0.1,0.1,0.2,0.1,0.4,0.1
			c0.1,0,0.2,0,0.3-0.1c0,0,0.1-0.1,0.1-0.3c0-0.1,0-0.2,0-0.4c0-0.2,0-0.4,0-0.6c0-0.1,0-0.3-0.2-0.4c-0.1-0.1-0.2-0.1-0.4-0.1
			c-0.1,0-0.2,0-0.4,0c-0.1,0-0.2,0-0.4,0c-0.2,0-0.5,0-1,0.1c-0.1,0-0.2,0-0.3,0c-0.2,0-0.5,0-0.6,0c-0.2,0-0.3,0-0.4,0
			c-0.1,0-0.3,0-0.6,0c-0.2,0-0.6-0.1-0.9-0.1l-0.5,0l0.1,0.6l0.1,0.1c0.2,0.1,0.4,0.2,0.4,0.4c0.1,0.2,0.1,0.3,0.2,0.5
			c0,0.5,0,1.1,0.1,1.6c0,0.6,0,1.1,0,1.7v1.5c0,0.3,0,0.8,0,1.3c0,0.2-0.1,0.4-0.2,0.6c-0.1,0.1-0.1,0.2-0.2,0.3
			c-0.1,0.1-0.1,0.1-0.2,0.2l-0.1,0.1V86.8z"/>
		<path class="st1" d="M85.9,15.5c-0.2,0-0.6,0-1.1-0.1c-0.4,0-0.8-0.1-1-0.1c-0.2,0-0.4,0-0.6,0c-0.2,0-0.5,0-0.7,0.1l-0.3,0v-0.6
			l0.1-0.1c0.1-0.1,0.3-0.2,0.4-0.4c0.1-0.2,0.2-0.3,0.2-0.5c0-0.4,0-0.9,0-1.5v-1.5c0-0.5,0-1.1,0-1.7c0-0.6,0-1.1-0.1-1.6
			c0-0.3-0.2-0.7-0.7-1l-0.1-0.1V6l0.3,0c0.2,0,0.5,0,0.7,0.1c0.3,0,0.5,0,0.6,0c0.2,0,0.4,0,0.5,0c0.2,0,0.4,0,0.6,0l0.7,0
			c0.2,0,0.4,0,0.7,0c0.6,0,1.2,0.1,1.7,0.3c0.6,0.2,1,0.5,1.4,0.9c0.4,0.4,0.7,0.8,1,1.4c0.2,0.5,0.3,1.1,0.3,1.7
			c0,0.7-0.1,1.4-0.3,2c-0.2,0.6-0.6,1.2-1,1.6c-0.4,0.5-1,0.8-1.6,1.1C87.3,15.4,86.6,15.5,85.9,15.5 M84.7,14.1
			c0.1,0.1,0.3,0.1,0.4,0.1c0.3,0,0.7,0.1,1.2,0.1c0.3,0,0.7-0.1,1-0.3c0.3-0.2,0.6-0.4,0.9-0.8c0.3-0.3,0.5-0.7,0.6-1.2
			c0.1-0.4,0.2-0.9,0.2-1.4c0-0.5-0.1-1.1-0.2-1.6c-0.1-0.5-0.3-0.9-0.6-1.2c-0.2-0.3-0.5-0.5-0.8-0.6c-0.3-0.1-0.7-0.2-1-0.2
			c-0.5,0-0.9,0-1.3,0c-0.2,0-0.3,0-0.4,0c0,0.1,0,0.2,0,0.3c0,0.1,0,0.1,0,0.1c0,0.3,0,0.6,0,0.8c0,0.3,0,0.7,0,1.1v1.3
			C84.7,11.9,84.7,13,84.7,14.1L84.7,14.1z"/>
		<path class="st1" d="M83.5,66.2l0.3,0c0.6-0.1,1-0.1,1.2-0.1c0.2,0,0.5,0,0.9,0c0.3,0,0.5,0,0.6,0c0.2,0,0.4,0,0.6,0
			c0.2,0,0.5,0,0.9,0c0.2,0,0.3,0,0.4,0c0.3,0,0.5-0.1,0.6-0.2c0.1-0.1,0.2-0.3,0.2-0.4c0-0.1,0.1-0.3,0.2-0.7
			c0.1-0.2,0.1-0.3,0.2-0.4c0-0.1,0.1-0.2,0.1-0.3c0-0.1,0-0.2-0.1-0.3c-0.1-0.1-0.2-0.2-0.4-0.2c-0.1,0-0.3,0-0.4,0.2
			c-0.1,0.1-0.2,0.2-0.3,0.4c-0.2,0.3-0.3,0.5-0.3,0.5c-0.2,0.1-0.3,0.2-0.6,0.3c-0.2,0.1-0.4,0.1-0.6,0.1c-0.3,0-0.5-0.1-0.7-0.2
			c-0.1-0.1-0.2-0.3-0.2-0.5c0-0.6,0-1.1-0.1-1.5c0-0.4,0-0.9,0-1.4v-1.3v-1.1c0-0.3,0-0.6,0-0.8c0-0.3,0.1-0.5,0.1-0.7
			c0.1-0.2,0.1-0.3,0.3-0.4l0.1-0.1v-0.5l-0.3,0c-0.1,0-0.3,0-0.6,0c-0.3,0-0.5,0-0.6,0c-0.2,0-0.3,0-0.5,0l-1-0.1v0.5l0.1,0.1
			c0.2,0.1,0.3,0.3,0.3,0.4c0.1,0.2,0.1,0.4,0.1,0.6c0,0.5,0,1.1,0.1,1.6c0,0.6,0,1.1,0,1.6v1.5c0,0.4,0,0.8,0,1.3
			c0,0.1,0,0.2-0.1,0.3c0,0.1-0.1,0.2-0.1,0.4c-0.1,0.1-0.1,0.2-0.2,0.3c-0.1,0.1-0.1,0.1-0.2,0.1l-0.1,0.1L83.5,66.2z"/>
		<path class="st1" d="M83.5,49l0.3,0c0.6-0.1,1-0.1,1.2-0.1c0.2,0,0.5,0,0.9,0c0.3,0,0.5,0,0.6,0c0.2,0,0.4,0,0.6,0
			c0.2,0,0.5,0,0.9,0c0.2,0,0.3,0,0.4,0c0.3,0,0.5-0.1,0.6-0.2c0.1-0.1,0.2-0.3,0.2-0.4c0-0.1,0.1-0.3,0.2-0.7
			c0.1-0.2,0.1-0.3,0.2-0.4c0-0.1,0.1-0.2,0.1-0.3c0-0.1,0-0.2-0.1-0.3c-0.1-0.1-0.2-0.2-0.4-0.2c-0.1,0-0.3,0-0.4,0.2
			c-0.1,0.1-0.2,0.2-0.3,0.4c-0.2,0.3-0.3,0.5-0.3,0.5c-0.2,0.1-0.3,0.2-0.6,0.3c-0.2,0.1-0.4,0.1-0.6,0.1c-0.3,0-0.5-0.1-0.7-0.2
			c-0.1-0.1-0.2-0.3-0.2-0.5c0-0.6,0-1.1-0.1-1.5c0-0.4,0-0.9,0-1.4v-1.3V42c0-0.3,0-0.6,0-0.8c0-0.3,0.1-0.5,0.1-0.7
			c0.1-0.2,0.1-0.3,0.3-0.4l0.1-0.1v-0.5l-0.3,0c-0.1,0-0.3,0-0.6,0c-0.3,0-0.5,0-0.6,0c-0.2,0-0.3,0-0.5,0l-1-0.1V40l0.1,0.1
			c0.2,0.1,0.3,0.3,0.3,0.4c0.1,0.2,0.1,0.4,0.1,0.6c0,0.5,0,1.1,0.1,1.6c0,0.6,0,1.1,0,1.6v1.5c0,0.4,0,0.8,0,1.3
			c0,0.1,0,0.2-0.1,0.3c0,0.1-0.1,0.2-0.1,0.4c-0.1,0.1-0.1,0.2-0.2,0.3c-0.1,0.1-0.1,0.1-0.2,0.1l-0.1,0.1L83.5,49z"/>
	</g>
</g>
</svg>
