<?xml version="1.0" encoding="UTF-8"?>
<svg xmlns="http://www.w3.org/2000/svg" xmlns:xlink="http://www.w3.org/1999/xlink" width="288.87pt" height="126.42pt" viewBox="0 0 288.87 126.42" version="1.1">
<defs>
<clipPath id="clip1">
  <path d="M 0 66 L 64 66 L 64 126.421875 L 0 126.421875 Z M 0 66 "/>
</clipPath>
<clipPath id="clip2">
  <path d="M 104 65 L 175 65 L 175 126.421875 L 104 126.421875 Z M 104 65 "/>
</clipPath>
<clipPath id="clip3">
  <path d="M 63 67 L 151 67 L 151 126.421875 L 63 126.421875 Z M 63 67 "/>
</clipPath>
<clipPath id="clip4">
  <path d="M 126 66 L 199 66 L 199 126.421875 L 126 126.421875 Z M 126 66 "/>
</clipPath>
<clipPath id="clip5">
  <path d="M 155 66 L 226 66 L 226 126.421875 L 155 126.421875 Z M 155 66 "/>
</clipPath>
<clipPath id="clip6">
  <path d="M 178 66 L 255 66 L 255 126.421875 L 178 126.421875 Z M 178 66 "/>
</clipPath>
<clipPath id="clip7">
  <path d="M 213 67 L 288.871094 67 L 288.871094 126.421875 L 213 126.421875 Z M 213 67 "/>
</clipPath>
<clipPath id="clip8">
  <path d="M 24 67 L 111 67 L 111 126.421875 L 24 126.421875 Z M 24 67 "/>
</clipPath>
</defs>
<g id="surface1">
<path style=" stroke:none;fill-rule:evenodd;fill:rgb(10.998535%,10.998535%,10.598755%);fill-opacity:1;" d="M 144.023438 11.675781 C 151.289063 8.222656 156.890625 0.0546875 166.140625 0.613281 C 166.722656 27.273438 172.765625 51.734375 177.816406 71.878906 C 173.019531 72.691406 168.628906 68.027344 163.070313 67.578125 C 162.273438 47.898438 161.578125 28.113281 157.542969 11.675781 C 139.921875 11.054688 134.273438 36.125 143.410156 49.148438 C 146.519531 42.011719 143.339844 28.167969 144.640625 20.886719 C 148.414063 21.003906 148.085938 25.222656 150.171875 27.03125 C 153.109375 26.902344 154.636719 22.773438 157.542969 24.574219 C 159 27.3125 154.820313 29.039063 154.46875 31.945313 C 155.375 34.113281 159.515625 33.046875 159.382813 36.246094 C 158.394531 37.710938 156.527344 38.304688 154.46875 38.703125 C 154.949219 42.730469 158.558594 43.625 158.15625 48.53125 C 154.367188 49.046875 154.058594 46.074219 150.785156 46.074219 C 147.582031 49.835938 148.289063 57.503906 145.253906 61.433594 C 129.128906 56.113281 129.746094 25.617188 140.339844 14.742188 C 138.074219 13.117188 135.726563 11.574219 131.738281 11.675781 C 126.195313 26.984375 126.230469 50.273438 125.59375 66.964844 C 120.640625 68.414063 115.339844 72.597656 110.238281 71.878906 C 117.394531 50.777344 120.585938 25.707031 123.136719 0 C 131.894531 2.09375 138.347656 6.5 144.023438 11.675781 "/>
<path style=" stroke:none;fill-rule:evenodd;fill:rgb(10.998535%,10.998535%,10.598755%);fill-opacity:1;" d="M 11.941406 87.238281 C 16.695313 94.15625 18.691406 103.832031 22.386719 111.8125 C 25.585938 103.949219 27.367188 94.679688 31.601563 87.851563 C 32.859375 86.898438 37.101563 86.898438 38.359375 87.851563 C 39.195313 100.164063 41.011719 114.625 42.046875 124.710938 C 39.238281 124.445313 35.28125 125.332031 33.445313 124.097656 C 33.695313 115.242188 33.222656 107.113281 32.832031 98.910156 C 28.371094 106.738281 27.757813 118.410156 21.769531 124.710938 C 15.273438 119.714844 13.9375 107.894531 10.714844 98.910156 C 8.390625 106.160156 9.363281 117.324219 8.253906 124.097656 C 6.847656 125.058594 2.292969 125.058594 0.882813 124.097656 C 4.339844 113.835938 4.222656 99.996094 5.796875 87.851563 C 6.960938 86.761719 9.855469 87.402344 11.941406 87.238281 "/>
<g clip-path="url(#clip1)" clip-rule="nonzero">
<path style="fill:none;stroke-width:14.85;stroke-linecap:butt;stroke-linejoin:miter;stroke:rgb(100%,100%,100%);stroke-opacity:1;stroke-miterlimit:10;" d="M 119.414063 391.817188 C 166.953125 322.6375 186.914063 225.879688 223.867188 146.075 C 255.859375 224.707813 273.671875 317.403125 316.015625 385.684375 C 328.59375 395.215625 371.015625 395.215625 383.59375 385.684375 C 391.953125 262.559375 410.117188 117.95 420.46875 17.090625 C 392.382813 19.746875 352.8125 10.879688 334.453125 23.223438 C 336.953125 111.778125 332.226563 193.067188 328.320313 275.098438 C 283.710938 196.817188 277.578125 80.098438 217.695313 17.090625 C 152.734375 67.051563 139.375 185.254688 107.148438 275.098438 C 83.90625 202.598438 93.632813 90.957813 82.539063 23.223438 C 68.476563 13.614063 22.929688 13.614063 8.828125 23.223438 C 43.398438 125.840625 42.226563 264.239063 57.96875 385.684375 C 69.609375 396.582813 98.554688 390.176563 119.414063 391.817188 Z M 119.414063 391.817188 " transform="matrix(0.1,0,0,-0.1,0,126.42)"/>
</g>
<path style=" stroke:none;fill-rule:evenodd;fill:rgb(10.998535%,10.998535%,10.598755%);fill-opacity:1;" d="M 150.171875 92.765625 C 141.386719 93.441406 133.171875 95.882813 132.355469 104.4375 C 131.28125 115.613281 141.699219 120.96875 153.238281 117.953125 C 156.171875 127.410156 141.949219 125.390625 137.882813 124.097656 C 128.222656 121.023438 120.214844 104.097656 129.894531 93.378906 C 132.425781 90.582031 148.230469 80.703125 150.171875 92.765625 "/>
<g clip-path="url(#clip2)" clip-rule="nonzero">
<path style="fill:none;stroke-width:14.85;stroke-linecap:butt;stroke-linejoin:miter;stroke:rgb(100%,100%,100%);stroke-opacity:1;stroke-miterlimit:10;" d="M 1501.71875 336.54375 C 1413.867188 329.785938 1331.71875 305.371875 1323.554688 219.825 C 1312.8125 108.067188 1416.992188 54.5125 1532.382813 84.66875 C 1561.71875 -9.901562 1419.492188 10.29375 1378.828125 23.223438 C 1282.226563 53.965625 1202.148438 223.223438 1298.945313 330.410938 C 1324.257813 358.379688 1482.304688 457.16875 1501.71875 336.54375 Z M 1501.71875 336.54375 " transform="matrix(0.1,0,0,-0.1,0,126.42)"/>
</g>
<path style=" stroke:none;fill-rule:evenodd;fill:rgb(10.998535%,10.998535%,10.598755%);fill-opacity:1;" d="M 108.394531 109.351563 L 116.996094 109.351563 C 115.285156 105.328125 115.070313 99.808594 112.082031 97.066406 C 111.5625 101.871094 109.027344 104.664063 108.394531 109.351563 M 105.320313 89.082031 C 102.976563 97.179688 97.359375 102.007813 94.261719 109.351563 L 101.636719 109.351563 C 104.3125 103.019531 108.273438 97.96875 108.394531 89.082031 C 110.308594 87.925781 114.996094 88.367188 116.996094 89.082031 C 121 101.25 125.484375 112.945313 129.894531 124.710938 L 120.679688 124.710938 C 120.207031 121.25 120.761719 117.460938 118.222656 114.882813 C 114.820313 115.484375 110.46875 115.898438 107.164063 114.882813 C 105.027344 116.835938 103.804688 119.714844 104.09375 124.097656 C 102.609375 125.273438 99.15625 124.484375 96.722656 124.710938 C 96.128906 120.230469 99.457031 119.664063 99.792969 116.109375 C 97.691406 113.933594 88.390625 116.871094 84.433594 114.882813 C 86.445313 106.449219 92.765625 102.328125 95.492188 94.609375 C 92.578125 92.292969 87.773438 96.058594 85.664063 94.609375 C 82.011719 85.488281 101.148438 88.433594 105.320313 89.082031 "/>
<g clip-path="url(#clip3)" clip-rule="nonzero">
<path style="fill:none;stroke-width:14.85;stroke-linecap:butt;stroke-linejoin:miter;stroke:rgb(100%,100%,100%);stroke-opacity:1;stroke-miterlimit:10;" d="M 1083.945313 170.684375 L 1169.960938 170.684375 C 1152.851563 210.91875 1150.703125 266.114063 1120.820313 293.535938 C 1115.625 245.489063 1090.273438 217.559375 1083.945313 170.684375 Z M 1053.203125 373.379688 C 1029.765625 292.403125 973.59375 244.121875 942.617188 170.684375 L 1016.367188 170.684375 C 1043.125 234.004688 1082.734375 284.5125 1083.945313 373.379688 C 1103.085938 384.942188 1149.960938 380.528125 1169.960938 373.379688 C 1210 251.7 1254.84375 134.746875 1298.945313 17.090625 L 1206.796875 17.090625 C 1202.070313 51.7 1207.617188 89.590625 1182.226563 115.371875 C 1148.203125 109.35625 1104.6875 105.215625 1071.640625 115.371875 C 1050.273438 95.840625 1038.046875 67.051563 1040.9375 23.223438 C 1026.09375 11.465625 991.5625 19.35625 967.226563 17.090625 C 961.289063 61.895313 994.570313 67.559375 997.929688 103.10625 C 976.914063 124.864063 883.90625 95.489063 844.335938 115.371875 C 864.453125 199.707813 927.65625 240.91875 954.921875 318.10625 C 925.78125 341.270313 877.734375 303.614063 856.640625 318.10625 C 820.117188 409.317188 1011.484375 379.864063 1053.203125 373.379688 Z M 1053.203125 373.379688 " transform="matrix(0.1,0,0,-0.1,0,126.42)"/>
</g>
<path style=" stroke:none;fill-rule:evenodd;fill:rgb(10.998535%,10.998535%,10.598755%);fill-opacity:1;" d="M 164.914063 93.378906 C 153.480469 90.101563 152.246094 106.792969 157.539063 113.039063 C 171.429688 120.734375 173.695313 95.902344 164.914063 93.378906 M 158.15625 88.464844 C 173.4375 84.660156 181.964844 102.933594 174.128906 114.269531 C 168.511719 122.394531 153.667969 120.734375 149.554688 113.039063 C 144.921875 104.371094 147.90625 91.019531 158.15625 88.464844 "/>
<g clip-path="url(#clip4)" clip-rule="nonzero">
<path style="fill:none;stroke-width:14.85;stroke-linecap:butt;stroke-linejoin:miter;stroke:rgb(100%,100%,100%);stroke-opacity:1;stroke-miterlimit:10;" d="M 1649.140625 330.410938 C 1534.804688 363.184375 1522.460938 196.270313 1575.390625 133.809375 C 1714.296875 56.85625 1736.953125 305.176563 1649.140625 330.410938 Z M 1581.5625 379.551563 C 1734.375 417.598438 1819.648438 234.864063 1741.289063 121.504688 C 1685.117188 40.254688 1536.679688 56.85625 1495.546875 133.809375 C 1449.21875 220.489063 1479.0625 354.004688 1581.5625 379.551563 Z M 1581.5625 379.551563 " transform="matrix(0.1,0,0,-0.1,0,126.42)"/>
</g>
<path style=" stroke:none;fill-rule:evenodd;fill:rgb(10.998535%,10.998535%,10.598755%);fill-opacity:1;" d="M 191.945313 107.511719 C 194.0625 115.21875 202.238281 116.875 204.230469 124.710938 C 191.011719 125.238281 189.246094 114.304688 184.570313 106.28125 C 191.996094 105.382813 195.152344 91.785156 184.570313 93.992188 C 183.4375 103.984375 183.964844 115.550781 185.1875 124.097656 C 183.351563 125.332031 179.390625 124.445313 176.585938 124.710938 C 177.304688 112.855469 178.0625 99.839844 176.585938 89.078125 C 193.550781 82.09375 207.015625 99.4375 191.945313 107.511719 "/>
<g clip-path="url(#clip5)" clip-rule="nonzero">
<path style="fill:none;stroke-width:14.85;stroke-linecap:butt;stroke-linejoin:miter;stroke:rgb(100%,100%,100%);stroke-opacity:1;stroke-miterlimit:10;" d="M 1919.453125 189.082813 C 1940.625 112.0125 2022.382813 95.45 2042.304688 17.090625 C 1910.117188 11.817188 1892.460938 121.153125 1845.703125 201.3875 C 1919.960938 210.371875 1951.523438 346.348438 1845.703125 324.278125 C 1834.375 224.35625 1839.648438 108.692188 1851.875 23.223438 C 1833.515625 10.879688 1793.90625 19.746875 1765.859375 17.090625 C 1773.046875 135.645313 1780.625 265.801563 1765.859375 373.41875 C 1935.507813 443.2625 2070.15625 269.825 1919.453125 189.082813 Z M 1919.453125 189.082813 " transform="matrix(0.1,0,0,-0.1,0,126.42)"/>
</g>
<path style=" stroke:none;fill-rule:evenodd;fill:rgb(10.998535%,10.998535%,10.598755%);fill-opacity:1;" d="M 212.832031 119.183594 C 231.171875 125.976563 232.289063 88.394531 213.445313 93.996094 C 204.398438 96.683594 203.914063 115.878906 212.832031 119.183594 M 212.21875 88.464844 C 242.613281 81.421875 239.542969 133.316406 210.988281 124.710938 C 195.105469 119.925781 195.164063 92.417969 212.21875 88.464844 "/>
<g clip-path="url(#clip6)" clip-rule="nonzero">
<path style="fill:none;stroke-width:14.85;stroke-linecap:butt;stroke-linejoin:miter;stroke:rgb(100%,100%,100%);stroke-opacity:1;stroke-miterlimit:10;" d="M 2128.320313 72.364063 C 2311.71875 4.434375 2322.890625 380.254688 2134.453125 324.239063 C 2043.984375 297.364063 2039.140625 105.410938 2128.320313 72.364063 Z M 2122.1875 379.551563 C 2426.132813 449.98125 2395.429688 -68.964062 2109.882813 17.090625 C 1951.054688 64.942188 1951.640625 340.020313 2122.1875 379.551563 Z M 2122.1875 379.551563 " transform="matrix(0.1,0,0,-0.1,0,126.42)"/>
</g>
<path style=" stroke:none;fill-rule:evenodd;fill:rgb(10.998535%,10.998535%,10.598755%);fill-opacity:1;" d="M 266.894531 109.351563 C 269.699219 109.085938 273.660156 109.972656 275.496094 108.738281 C 273.640625 105.269531 273.625 99.960938 270.582031 97.679688 C 269.542969 101.761719 267.929688 105.269531 266.894531 109.351563 M 255.222656 105.050781 C 256.785156 100.613281 255.425781 93.796875 255.222656 89.082031 C 256.480469 88.128906 260.722656 88.128906 261.980469 89.082031 C 261.289063 94.535156 261.277344 100.664063 261.363281 106.894531 C 263.859375 101.519531 266.875 95.09375 266.894531 89.082031 C 268.378906 87.902344 271.832031 88.691406 274.265625 88.464844 C 280.203125 99.117188 283.117188 112.789063 287.78125 124.710938 L 279.179688 124.710938 C 278.332031 121.199219 279.503906 117.414063 276.722656 114.882813 C 273.574219 115.738281 268.8125 115.738281 265.664063 114.882813 C 263.011719 116.324219 262.382813 119.789063 262.59375 124.097656 C 261.109375 125.273438 257.65625 124.484375 255.222656 124.710938 C 254.816406 121.4375 256.359375 120.117188 257.679688 118.566406 C 252.378906 111.988281 247.136719 105.355469 241.089844 99.523438 C 241.128906 105.835938 240.816406 112.496094 241.707031 117.957031 C 240 119.0625 235.300781 118.914063 234.335938 117.339844 C 237.160156 109.863281 234.53125 95.992188 235.5625 88.464844 C 245.601563 88.195313 248.1875 100.304688 255.222656 105.050781 "/>
<g clip-path="url(#clip7)" clip-rule="nonzero">
<path style="fill:none;stroke-width:14.85;stroke-linecap:butt;stroke-linejoin:miter;stroke:rgb(100%,100%,100%);stroke-opacity:1;stroke-miterlimit:10;" d="M 2668.945313 170.684375 C 2696.992188 173.340625 2736.601563 164.473438 2754.960938 176.817188 C 2736.40625 211.504688 2736.25 264.590625 2705.820313 287.403125 C 2695.429688 246.582813 2679.296875 211.504688 2668.945313 170.684375 Z M 2552.226563 213.692188 C 2567.851563 258.067188 2554.257813 326.23125 2552.226563 373.379688 C 2564.804688 382.910938 2607.226563 382.910938 2619.804688 373.379688 C 2612.890625 318.848438 2612.773438 257.559375 2613.632813 195.254688 C 2638.59375 249.004688 2668.75 313.2625 2668.945313 373.379688 C 2683.789063 385.176563 2718.320313 377.285938 2742.65625 379.551563 C 2802.03125 273.028125 2831.171875 136.309375 2877.8125 17.090625 L 2791.796875 17.090625 C 2783.320313 52.207813 2795.039063 90.059375 2767.226563 115.371875 C 2735.742188 106.817188 2688.125 106.817188 2656.640625 115.371875 C 2630.117188 100.957813 2623.828125 66.309375 2625.9375 23.223438 C 2611.09375 11.465625 2576.5625 19.35625 2552.226563 17.090625 C 2548.164063 49.825 2563.59375 63.028125 2576.796875 78.535938 C 2523.789063 144.317188 2471.367188 210.645313 2410.898438 268.965625 C 2411.289063 205.840625 2408.164063 139.239063 2417.070313 84.629688 C 2400 73.575 2353.007813 75.059375 2343.359375 90.801563 C 2371.601563 165.567188 2345.3125 304.278125 2355.625 379.551563 C 2456.015625 382.246875 2481.875 261.153125 2552.226563 213.692188 Z M 2552.226563 213.692188 " transform="matrix(0.1,0,0,-0.1,0,126.42)"/>
</g>
<path style=" stroke:none;fill-rule:evenodd;fill:rgb(10.998535%,10.998535%,10.598755%);fill-opacity:1;" d="M 45.730469 88.464844 C 51.910156 88.839844 59.609375 87.695313 64.773438 89.078125 C 65.21875 92.1875 64.097656 93.726563 62.933594 95.222656 C 59.59375 95.082031 57.90625 93.285156 53.71875 93.992188 C 52.296875 95.855469 53.5 100.332031 53.101563 103.210938 C 55.558594 104.851563 61.707031 102.796875 64.160156 104.441406 C 65.085938 105.433594 65.085938 108.972656 64.160156 109.96875 C 60.59375 109.660156 56.796875 107.640625 53.101563 109.355469 C 53.480469 112.441406 52.527344 116.613281 53.101563 117.953125 C 56.839844 123.019531 65.691406 113.636719 66.617188 119.796875 C 71.039063 114.800781 74.195313 108.53125 77.675781 102.59375 C 74.363281 100.261719 69.320313 104.273438 66.617188 102.59375 C 65.171875 92.917969 80.570313 96.9375 86.890625 97.066406 C 84.085938 105.113281 79.230469 111.113281 75.835938 118.570313 C 80.101563 120.570313 85.074219 117.988281 89.347656 117.953125 C 91.640625 127.929688 74.964844 123.96875 66.003906 124.710938 C 65.9375 123.183594 64.851563 122.808594 66.003906 121.640625 C 64.707031 125.300781 51.53125 125.539063 45.117188 124.097656 C 47.515625 114.25 46.042969 97.359375 45.730469 88.464844 "/>
<g clip-path="url(#clip8)" clip-rule="nonzero">
<path style="fill:none;stroke-width:14.85;stroke-linecap:butt;stroke-linejoin:miter;stroke:rgb(100%,100%,100%);stroke-opacity:1;stroke-miterlimit:10;" d="M 457.304688 379.551563 C 519.101563 375.801563 596.09375 387.246875 647.734375 373.41875 C 652.1875 342.325 640.976563 326.934375 629.335938 311.973438 C 595.9375 313.379688 579.0625 331.348438 537.1875 324.278125 C 522.96875 305.645313 535 260.879688 531.015625 232.090625 C 555.585938 215.684375 617.070313 236.23125 641.601563 219.785938 C 650.859375 209.864063 650.859375 174.473438 641.601563 164.5125 C 605.9375 167.598438 567.96875 187.79375 531.015625 170.645313 C 534.804688 139.785938 525.273438 98.067188 531.015625 84.66875 C 568.398438 34.004688 656.914063 127.832813 666.171875 66.23125 C 710.390625 116.192188 741.953125 178.8875 776.757813 238.2625 C 743.632813 261.582813 693.203125 221.465625 666.171875 238.2625 C 651.71875 335.020313 805.703125 294.825 868.90625 293.535938 C 840.859375 213.067188 792.304688 153.067188 758.359375 78.496875 C 801.015625 58.496875 850.742188 84.317188 893.476563 84.66875 C 916.40625 -15.096875 749.648438 24.5125 660.039063 17.090625 C 659.375 32.364063 648.515625 36.114063 660.039063 47.79375 C 647.070313 11.192188 515.3125 8.809375 451.171875 23.223438 C 475.15625 121.7 460.429688 290.60625 457.304688 379.551563 Z M 457.304688 379.551563 " transform="matrix(0.1,0,0,-0.1,0,126.42)"/>
</g>
</g>
</svg>
