<?xml version="1.0" encoding="UTF-8"?>
<svg id="Livello_1" xmlns="http://www.w3.org/2000/svg" version="1.1" viewBox="0 0 2279.4 1291.6">
  <!-- Generator: Adobe Illustrator 29.1.0, SVG Export Plug-In . SVG Version: 2.1.0 Build 142)  -->
  <defs>
    <style>
      .st0 {
        fill: #fff;
        fill-opacity: 0;
      }

      .st0, .st1 {
        fill-rule: evenodd;
      }

      .st1 {
        fill: #7e6d5a;
      }
    </style>
  </defs>
  <path class="st0" d="M-110.3-604.2h2500V1895.8H-110.3V-604.2Z"/>
  <path class="st1" d="M0,1026.7h76.1v-7.2h-5.7c-20.8,0-29.4-5-29.4-36.6v-221.8h.7l94,265.6h10.1l91.9-261.3h.7v254.1h-33.7v7.2h124.2v-7.2h-29.4v-261.3h29.4v-7.2h-94.8l-66.1,188.8h-.7l-65.3-188.8H1.4v7.2h30.2v228.3c0,16.5-3.6,33-30.2,33H0v7.2h0ZM346.8,1026.7h71.1v-7.2h-10.8c-7.9,0-19.4-1.4-19.4-14.3s2.2-8.6,2.9-11.5l18.7-55.3h76.1l28.7,81.1h-31.6v7.2h117v-7.2h-19.4l-105.5-275h-5.7l-90.5,252c-5,12.9-12.2,22.2-26.6,23h-5v7.2h0ZM412.8,931.2l34.5-99.1h.7l33.7,99.1h-68.9ZM710,758.2h28.7c33.7,0,48.8,5,48.8,53.1.7,49.5-10.1,66.8-56,68.9h-21.5v-122h0ZM617.4,1026.7h124.9v-7.2h-32.3v-132.1h20.8c40.2.7,56,10,56,73.2s10.1,72.5,51.7,72.5,34.5-3.6,48.1-13.6l-2.9-5.7c-4.3,2.9-10.1,5-14.3,5-15.8,0-21.5-5.7-22.3-66.8-.7-42.4-28.7-64.6-86.9-69.6v-.7c40.2-2.9,92.6-18,92.6-66.1s-69.6-64.6-112.7-64.6h-122.8v7.2h31.6v261.3h-31.6v7.2h0ZM900.3,1026.7h226.9l7.2-92.6h-8.6c-5,48.1-19.4,84-96.2,85.4h-58.9l157.9-261.3v-7.2h-209.6l-5,84.7h7.2c5.7-53.1,31.6-77.5,76.1-77.5h62.5l-159.4,261.3v7.2ZM1160.9,1026.7h70.3v-7.2h-10.8c-7.9,0-18.7-1.4-18.7-14.3s1.4-8.6,2.9-11.5l18.7-55.3h76.1l28,81.1h-30.9v7.2h116.3v-7.2h-18.7l-104.8-275h-5.7l-91.2,252c-4.3,12.9-11.5,22.2-26.6,23h-5v7.2h0ZM1226.2,931.2l35.2-99.1h.7l34.4,99.1h-70.3,0ZM1435.1,1026.7h136.4c106.9,0,136.4-86.9,136.4-135.7,0-86.9-56.7-140-138.6-140h-134.3v7.2h30.9v261.3h-30.9v7.2h0ZM1527.7,758.2h37.3c71.1,0,77.5,54.6,77.5,129.2s-5.7,132.1-82.6,132.1h-32.3v-261.3h0ZM1832.1,758.2h28c33,0,48.8,5,48.8,53.1,1.4,49.5-10.8,66.8-55.3,68.9h-21.6v-122ZM1738.8,1026.7h125.7v-7.2h-32.3v-132.1h20.1c40.2.7,56,10,56,73.2s10,72.5,51.7,72.5,33.7-3.6,48.1-13.6l-2.9-5.7c-5,2.9-10.8,5-14.4,5-15.8,0-20.8-5.7-21.5-66.8-.7-42.4-28.7-64.6-86.9-69.6v-.7c40.2-2.9,91.9-18,91.9-66.1s-69.6-64.6-112.7-64.6h-122.8v7.2h31.6v261.3h-31.6v7.2h0,0ZM2031,888.8c-1.4,73.9,54.6,144.3,124.2,144.3s125.7-70.4,124.2-144.3c0-76.8-50.3-144.3-124.2-144.3s-124.2,67.5-124.2,144.3ZM2155.2,1025.9c-45.2,0-58.2-37.3-58.2-137.1s28-137.1,58.2-137.1,58.9,13.6,58.9,137.1-12.9,137.1-58.9,137.1ZM195.3,1243.5c55.3,0,70.4-37.3,70.4-59.6,0-33.8-25.8-51.7-54.6-51.7h-42.4l-.7,2.9c19.4,0,20.8,2.2,17.2,16.5l-19.4,71.8c-3.6,12.2-5,17.2-18.7,17.2v2.9h48.1ZM203.2,1137.9c28.7,0,47.4,16.5,47.4,49.5s-13.6,49.5-51,49.5h-25.1l28.7-99.1ZM303,1161.6c2.9,0,5.7-3.6,5.7-6.5,0-3.1-2.5-5.7-5.6-5.7,0,0,0,0-.1,0-3.6,0-6.5,2.2-6.5,5.7s2.9,6.5,6.5,6.5h0ZM279.3,1244.9c5,0,12.9-5,23.7-18.7l-4.3-2.9c-5.7,7.2-10.1,13.6-13.6,13.6s-.7-3.6.7-8.6l9.3-25.8c2.9-7.9,8.6-20.8.7-20.8s-21.5,14.4-24.4,19.4l2.9,1.4c5.7-6.5,9.3-10.8,10.8-10.8s.7,2.9,0,6.5l-11.5,33c-2.2,6.5-2.2,13.6,5.7,13.6h0ZM346.8,1198.3c2.2-4.3,5-5,8.6-7.9-2.2-3.6-6.5-8.6-15.8-8.6-14.4,0-19.4,10.1-19.4,15.1s2.9,10,8.6,17.2c7.9,10.8,9.3,13.6,9.3,16.5,0,5.1-4.2,9.2-9.3,9.3-5.7,0-11.5-5-8.6-15.8l-1.4-.7c-4.3,1.4-9.3,4.3-11.5,6.5.7,7.9,7.9,15.1,18.7,15.1s21.5-8.6,21.5-18.7-3.6-12.2-10.8-20.8c-5.7-7.2-7.9-10.1-7.9-13.6s3.6-5.7,6.5-5.7c7.9,0,10.8,7.9,11.5,12.2ZM399.2,1191.8l2.2-10.1h-2.2c-2.2.7-3.6.7-5,.7h-4.3l5-17.2h-4.3c-6.5,12.2-12.9,15.8-22.3,17.2l-2.2,6.5h11.5l-12.2,40.9c-2.2,7.2-1.4,15.1,5,15.1,9.3,0,20.8-16.5,23-20.8l-2.9-1.4c-9.3,12.2-12.2,13.6-13.6,13.6s-1.4-2.9,0-7.9l11.5-39.5h4.3c2.2,0,2.9,0,2.9,2.9h3.6s0,0,0,0ZM434.3,1161.6c3.6,0,6.5-3.6,6.5-6.5s-2.9-5.7-6.5-5.7c-3.1,0-5.7,2.5-5.7,5.6,0,0,0,0,0,.1,0,2.9,2.9,6.5,5.7,6.5ZM411.4,1244.9c5,0,12.9-5,23-18.7l-3.6-2.9c-5,7.2-10.8,13.6-13.6,13.6s-.7-3.6.7-8.6l9.3-25.8c2.9-7.9,8.6-20.8.7-20.8s-21.5,14.4-24.4,19.4l2.9,1.4c5.7-6.5,9.3-10.8,10.8-10.8s.7,2.9,0,6.5l-11.5,33c-2.2,6.5-2.2,13.6,5.7,13.6h0ZM457.3,1229.1l29.4-99.8h-3.6c-4.3,3.6-10.8,5.7-15.8,7.2l-.7,3.6c6.5.7,5.7,1.4,3.6,6.5l-24.4,83.3c-.7,3.6-2.2,8.6-2.2,10,0,3.6,2.9,5,7.2,5,9.3,0,20.1-11.5,25.8-17.2l-2.9-2.2c-7.2,6.5-12.9,12.2-16.5,12.2s-.7-5.7,0-8.6h0ZM499.7,1229.1l28.7-99.8h-2.9c-5,3.6-10.8,5.7-15.8,7.2v3.6c5.7.7,4.3,1.4,2.9,6.5l-24.4,83.3c-.7,3.3-1.2,6.7-1.4,10,0,3.6,2.9,5,6.5,5,9.3,0,20.8-11.5,25.8-17.2l-3.6-2.2c-7.2,6.5-12.9,12.2-15.8,12.2s-.7-5.7,0-8.6h0ZM561.4,1244.9c9.3,0,20.1-12.2,26.6-18.7l-2.2-2.2c-5,3.6-10.8,11.5-12.9,11.5-3.6,0-1.4-5,0-10.8l12.9-44.5h-11.5l-.7,2.9c-.7-1.4-2.2-1.4-4.3-1.4-13.6,0-43.8,28.7-43.8,51.7s0,11.5,10.8,11.5,11.5-3.6,24.4-15.8c-3.6,8.6-5.7,15.8.7,15.8h0ZM565,1188.2c2.9,0,6.5,1.4,4.3,7.2l-6.5,24.4c-6.5,7.9-12.9,13.6-20.1,13.6s-7.2-4.3-7.2-6.5c0-14.4,19.4-38.8,29.4-38.8ZM634.6,1191.8l2.2-10.1h-2.2c-1.4.7-4.3.7-5,.7h-4.3l5-17.2h-4.3c-5.7,12.2-12.9,15.8-23,17.2l-1.4,6.5h11.5l-12.2,40.9c-2.2,7.2-2.2,15.1,4.3,15.1,9.3,0,20.8-16.5,23.7-20.8l-2.9-1.4c-10,12.2-12.9,13.6-13.6,13.6-1.4,0-1.4-2.9,0-7.9l11.5-39.5h3.6c2.9,0,4.3,0,4.3,2.9h2.9ZM654,1244.9c21.5,0,40.2-26.6,40.2-45.2s-8.6-18-19.4-18c-22.3,0-38.1,25.8-38.1,43.1s5,20.1,17.2,20.1h0ZM669.1,1190.4c3.6,0,15.8,2.2,15.8,17.2s-10.8,28.7-22.3,28.7-16.5-10-16.5-20.8c0-14.4,11.5-25.1,23-25.1ZM745.2,1202.6l11.5-9.3c-.7-7.2-4.3-11.5-9.3-11.5-8.6,0-15.1,9.3-26.6,26.6l3.6-16.5c1.4-5.7,1.4-10.1-2.9-10.1s-10.8,5-19.4,20.1l2.2,2.1c2.2-1.4,6.5-9.3,7.9-9.3s0,3.6-.7,5.7l-7.9,32.3c-1.4,6.5-2.9,12.2,3.6,12.2s10.8-2.9,14.4-5l-.7-2.2c-7.2,2.2-7.2.7-6.5-2.9l2.2-11.5c3.6-5.7,6.5-10.1,11.5-18.7,5-5.7,10.1-14.3,12.9-14.3,5,0,4.3,5,2.9,11.5l1.4.7h0ZM791.2,1161.6c2.9,0,5-3.6,5-6.5s-2.2-5.7-5-5.7c-4.3,0-6.5,2.2-6.5,5.7s2.2,6.5,6.5,6.5ZM767.5,1244.9c4.3,0,12.9-5,23.7-18.7l-4.3-2.9c-5.7,7.2-10.8,13.6-13.6,13.6s-.7-3.6.7-8.6l9.3-25.8c2.2-7.9,7.9-20.8,0-20.8s-20.8,14.4-23.7,19.4l2.9,1.4c5.7-6.5,9.3-10.8,10.1-10.8,2.2,0,1.4,2.9,0,6.5l-10.8,33c-2.1,6.5-2.1,13.6,5.8,13.6ZM866.5,1243.5c19.4,0,35.2-24.4,35.2-44.5s-7.2-17.2-14.4-17.2-11.5,1.4-20.1,10.8l5-21.5h-2.2c-4.3,2.9-7.9,3.6-10.1,3.6-1.4,5.7-2.2,11.5-13.6,20.1l-1.4,6.5c3.6-1.4,6.5-4.3,10.8-7.2l-20.8,78.3c-2.9,10-4.3,12.9-10.1,16.5v2.9l19.4-3.6c-.7-7.9.7-12.9,2.2-16.5l8.6-31.6c1.4.7,2.2,1.4,2.9,1.4,2.9,1.4,5,2.2,8.6,2.2h0ZM880.9,1191.1c3.6,0,10.8,2.9,10.8,16.5,0,20.1-12.9,30.9-22.3,30.9s-9.3-5-12.2-9.3l6.5-26.6c3.6-3.6,10.8-11.5,17.2-11.5ZM920.4,1209c28.7-.7,42.4-9.3,42.4-18.7s-9.3-8.6-12.2-8.6c-22.3,0-43.1,24.4-43.1,44.5s2.9,18.7,20.1,18.7,15.1-2.2,20.8-5.7l-2.2-2.9c-2.9,1.4-6.5,2.2-10.8,2.2-14.4,0-16.5-12.9-16.5-20.1,0-3.6,0-6.5,1.4-9.3ZM944.8,1187.5c2.9,0,5.7,1.4,5.7,3.6,0,5-6.5,12.9-29.4,14.4,6.5-10.1,15.1-17.9,23.7-17.9h0ZM1010.1,1202.6l11.5-9.3c-.7-7.2-3.6-11.5-8.6-11.5-8.6,0-15.8,9.3-27.3,26.6l4.3-16.5c1.4-5.7,1.4-10.1-3.6-10.1s-10.1,5-18.7,20.1l2.9,2.1c.7-1.4,5.7-9.3,7.2-9.3s0,3.6-.7,5.7l-7.9,32.3c-1.4,6.5-2.9,12.2,2.9,12.2s10.8-2.9,14.4-5l-.7-2.2c-6.5,2.2-6.5.7-5.7-2.9l2.2-11.5c2.9-5.7,6.5-10.1,11.5-18.7,4.3-5.7,10.1-14.3,12.9-14.3,4.3,0,3.6,5,2.2,11.5l1.4.7ZM1092.7,1243.5c20.1,0,35.9-24.4,35.9-44.5s-7.9-17.2-13.6-17.2-11.5,1.4-21.5,10.8l5.7-21.5h-2.9c-3.6,2.9-6.5,3.6-8.6,3.6-1.4,5.7-3.6,11.5-14.4,20.1l-2.2,6.5c4.3-1.4,7.9-4.3,10.8-7.2l-20.1,78.3c-2.9,10-5,12.9-10.1,16.5v2.9l18.7-3.6c0-7.9.7-12.9,2.9-16.5l7.9-31.6c1.4.7,2.2,1.4,4.3,1.4,2.1,1.5,4.6,2.2,7.2,2.2h0ZM1107.8,1191.1c3.6,0,10.1,2.9,10.1,16.5,0,20.1-12.9,30.9-22.3,30.9s-8.6-5-12.2-9.3l7.9-26.6c2.2-3.6,10.8-11.5,16.5-11.5ZM1171.7,1244.9c8.6,0,20.1-12.2,26.5-18.7l-2.2-2.2c-5,3.6-10.8,11.5-13.6,11.5s-1.4-5,0-10.8l13.6-44.5h-11.5l-.7,2.9c-1.4-1.4-2.1-1.4-4.3-1.4-13.7,0-43.8,28.7-43.8,51.7s0,11.5,10,11.5,11.5-3.6,24.4-15.8c-2.9,8.6-5,15.8,1.5,15.8h0ZM1175.2,1188.2c2.9,0,6.5,1.4,4.3,7.2l-6.5,24.4c-6.5,7.9-12.9,13.6-20.1,13.6s-7.9-4.3-7.9-6.5c0-14.4,20.1-38.8,30.1-38.8h0ZM1243.5,1198.3c2.9-4.3,5-5,8.6-7.9-2.2-3.6-5.7-8.6-15.8-8.6-14.3,0-19.4,10.1-19.4,15.1s3.6,10,8.6,17.2c8.6,10.8,9.4,13.6,9.4,16.5,0,5.1-4.2,9.2-9.4,9.3-5,0-11.5-5-8.6-15.8l-1.4-.7c-4.3,1.4-9.4,4.3-11.5,6.5.7,7.9,7.9,15.1,18.7,15.1s22.3-8.6,22.3-18.7-4.3-12.2-10.8-20.8c-6.5-7.2-8.6-10.1-8.6-13.6s3.6-5.7,7.2-5.7c7.2,0,10,7.9,10.8,12.2ZM1295.1,1198.3c2.9-4.3,4.3-5,8.6-7.9-2.9-3.6-6.5-8.6-16.5-8.6-14.4,0-19.4,10.1-19.4,15.1s3.6,10,8.6,17.2c8.6,10.8,10,13.6,10,16.5,0,5-4.3,9.3-10,9.3s-11.5-5-8.6-15.8l-1.4-.7c-3.6,1.4-8.6,4.3-11.5,6.5.7,7.9,7.9,15.1,18.7,15.1s22.3-8.6,22.3-18.7-4.3-12.2-10.8-20.8c-6.5-7.2-8.6-10.1-8.6-13.6s3.6-5.7,7.2-5.7c7.2,0,10.8,7.9,11.5,12.2ZM1340.4,1161.6c3.6,0,6.5-3.6,6.5-6.5s-2.9-5.7-6.5-5.7c-3.1,0-5.7,2.4-5.7,5.6,0,0,0,.1,0,.2,0,2.9,2.9,6.5,5.7,6.5ZM1316.7,1244.9c5.7,0,12.9-5,23.7-18.7l-3.6-2.9c-5.7,7.2-10.8,13.6-13.6,13.6s-.7-3.6.7-8.6l9.4-25.8c2.9-7.9,7.9-20.8.7-20.8s-21.5,14.4-24.4,19.4l2.9,1.4c5-6.5,9.3-10.8,10.8-10.8s.7,2.9,0,6.5l-11.5,33c-2.2,6.5-2.2,13.6,5,13.6h0ZM1363.3,1244.9c20.8,0,39.5-26.6,39.5-45.2s-7.9-18-19.4-18c-21.5,0-37.3,25.8-37.3,43.1s5,20.1,17.2,20.1ZM1377.7,1190.4c4.3,0,16.5,2.2,16.5,17.2s-10.8,28.7-22.2,28.7-16.5-10-16.5-20.8,10.8-25.1,22.3-25.1h0ZM1457.4,1244.9c5,0,12.9-5,23-18l-4.3-2.9c-4.3,7.9-9.3,10.8-9.3,10.8-2.2,0-.7-2.9.7-6.5l8.6-33c2.2-5,2.9-13.6-7.9-13.6s-30.2,14.4-35.2,20.8l2.2-7.9c1.4-5,4.3-12.9-2.9-12.9s-18,12.2-22.3,19.4l3.6,2.2c1.4-2.2,8.6-10.8,10-10.8s.7.7,0,2.9l-11.5,40.9c-.7,2.9-2.9,8.6,0,8.6s10.1-3.6,12.9-5l.7-2.9c-1.4-.7-2.2-1.4-1.4-3.6l5.7-19.4c5.7-7.9,19.4-26.6,32.3-26.6s4.3,3.6,2.2,8.6l-10.8,38.8c-2.1,4.3-3.6,10.1,3.6,10.1ZM1499.8,1209c29.4-.7,42.4-9.3,42.4-18.7s-8.6-8.6-11.5-8.6c-22.2,0-43.1,24.4-43.1,44.5s3.6,18.7,20.1,18.7,15.1-2.2,20.8-5.7l-1.4-2.9c-4.3,1.4-7.2,2.2-11.5,2.2-15.1,0-17.2-12.9-17.2-20.1,0-3.2.5-6.3,1.4-9.3ZM1524.9,1187.5c2.9,0,5.7,1.4,5.7,3.6,0,5-6.5,12.9-29.4,14.4,6.5-10.1,15.1-17.9,23.7-17.9h0ZM1636.1,1229.8l29.4-100.5h-2.9c-4.3,2.9-10.8,5.7-16.5,7.2l-.7,2.9c5,1.4,5.7,1.4,4.3,5.7l-11.5,40.9c-.7-.7-4.3-4.3-9.3-4.3-15.1,0-38.8,25.8-38.8,50.3s4.3,12.9,11.5,12.9,16.5-6.5,23.7-14.3c-2.2,6.5-4.3,14.3,4.3,14.3s15.8-8.6,21.6-15.8l-3.6-2.2c-2.9,3.6-7.9,9.3-10.1,9.3s-2.2-3.6-1.5-6.5h0ZM1626.1,1188.2c5,0,7.9,4.3,7.9,8.6s-4.3,19.4-5.7,22.3c-1.4,3.6-10.1,16.5-20.1,16.5s-7.9-3.6-7.9-9.3c0-17.2,13.6-38.1,25.9-38.1h0ZM1695.7,1244.9c9.3,0,20.8-12.2,27.3-18.7l-2.9-2.2c-4.3,3.6-10.8,11.5-12.9,11.5s-1.4-5,0-10.8l12.9-44.5h-11.5l-.7,2.9c-.7-1.4-1.4-1.4-3.6-1.4-13.7,0-44.5,28.7-44.5,51.7s0,11.5,10.8,11.5,11.5-3.6,24.4-15.8c-2.9,8.6-5,15.8.7,15.8h0ZM1700.1,1188.2c2.9,0,6.5,1.4,4.3,7.2l-7.2,24.4c-5.7,7.9-12.9,13.6-19.4,13.6s-7.9-4.3-7.9-6.5c0-14.4,20.1-38.8,30.2-38.8h0ZM1747.4,1229.1l28.7-99.8h-2.9c-5,3.6-11.5,5.7-16.5,7.2l-.7,3.6c6.5.7,5.7,1.4,4.3,6.5l-24.4,83.3c-.7,3.6-2.9,8.6-2.9,10,0,3.6,3.6,5,7.2,5,9.3,0,20.8-11.5,25.8-17.2l-2.9-2.2c-7.9,6.5-12.9,12.2-17.2,12.2s0-5.7,1.4-8.6ZM1853.7,1229.8l23-85.4h-6.5c-5.7,7.2-14.4,12.9-21.6,17.2l-1.4,4.3c4.3,0,8.6-.7,13.6-2.2l-17.9,61.7c-2.9,9.3-6.5,14.3-16.5,15.1v2.9h35.9v-2.9c-7.9,0-11.5-1.4-8.6-10.8h0ZM1944.1,1213.3c-11.5,14.4-29.4,23.7-43.1,28l2.2,3.6c38.8-8.6,69.6-51,69.6-78.2s-7.2-22.3-20.8-22.3c-27.3,0-41.6,30.1-41.6,46.7s6.5,17.2,15.8,17.2,10.8-.7,18.7-7.9l-2.9-3.6c-7.2,9.3-21.6,2.2-21.6-14.4s8.6-30.1,25.1-30.1,15.8,10,15.8,17.9c0,12.2-7.9,30.1-17.2,43.1ZM2041.8,1214.8l3.6-12.9h-3.6c-2.2,4.3-4.3,5-9.3,5h-4.3l17.2-62.4h-3.6l-67.5,66.1-1.4,4.3h42.4l-3.6,12.2c-1.4,5.7-2.9,13.6-15.1,13.6v2.9h35.2v-2.9c-9.3,0-10.8-3.6-9.3-10l4.3-15.8h15.1s0,0,0,0ZM1984.3,1206.9l46-43.1-12.2,43.1h-33.7ZM2099.9,1213.3c-11.5,14.4-28.7,23.7-42.4,28l2.2,3.6c38.8-8.6,69.6-51,69.6-78.2s-7.2-22.3-20.8-22.3c-27.3,0-41.6,30.1-41.6,46.7s6.5,17.2,15.8,17.2,10.8-.7,17.9-7.9l-2.2-3.6c-7.2,9.3-22.2,2.2-22.2-14.4s9.3-30.1,25.1-30.1,17.2,10,17.2,17.9c0,12.2-8.6,30.1-18.7,43.1ZM964.2,232.6l13.6-125.6s21.5,38.8,58.2,140.7c0,0-40.2-9.3-71.8-15.1h0ZM1243.5,288.6l89.8-179.5c.7-.7,4.3,182.4,4.3,182.4,0,0-37.3,2.9-93.3-2.9h-.7ZM1124.3,321.7s44.5,10.1,79.7,14.4c0,0-45.2,91.9-48.1,96.9,0,0-21.5-80.4-30.9-109.8l-.7-1.4ZM1511.9,533.4c2.2,0-35.9,37.3-147.9,37.3,0,0-52.4-1.4-91.2-8.6l-2.2-43.1s37.3,25.1,121.3,25.1,119.9-10.8,119.9-10.8h0ZM868,28l.7-10.1s86.9-9.3,106.2-9.3,35.9,10.8,67.5,81.1c37.3,83.3,65.3,177.3,65.3,177.3,0,0,55.3,12.9,119.9,20.8,0,0,67.5-144.3,99.8-226.2,0,0,7.9-15.8,7.9-21.5s-2.2-10.1-12.9-15.1c-10.8-5.7-27.3-8.6-38.1-10.1v-6.5c.7-5,1.4-7.9,1.4-8.6,0,0,19.4,10.8,78.2,5.7,58.2-5,84.7-3.6,116.3,19.4,0,0-4.3,4.3-5.7,17.2,0,0-37.3-35.2-71.1.7-18.7,20.1-14.4,244.1-14.4,244.1,0,0,52.4-5,97.6-25.1,44.5-20.1,53.9-46.7,59.6-60.3,2.9,2.9,7.2,122.8-156.5,138.6,0,0,3.6,152.9,19.4,177.3,0,0-56,22.3-71.1-173.7,0,0-61.7,2.2-117.7-5.7,0,0-64.6,136.4-85.4,193.8l-8.6,1.4s-38.1-131.4-71.1-230.5c0,0-32.3-8.6-96.9-25.1,0,0-18.7,165.8-23,223.3,0,0-5.7,29.4,4.3,38.1,9.3,8.6,18.7,15.8,41.6,24.4,23.7,8.6,51,20.1,62.5,38.8l-2.9,22.3s-26.6-28-63.9-38.8c-37.3-10.1-54.6-10.1-115.6-2.9-61,6.5-78.2-.7-92.6-23.7l9.3-7.9s26.6,19.4,69.6,7.2c42.4-12.9,43.1-32.3,49.5-53.1,5-20.8,17.2-71.1,29.4-150,12.2-77.5,12.2-81.9,12.2-81.9,0,0-54.6-12.2-95.5-11.5-40.2.7-83.3,15.1-83.3,53.1s40.9,64.6,76.8,64.6,51-18,58.2-28.7h3.6s-.7,63.2-82.6,63.9c-82.6.7-84-69.6-84-69.6,0,0-10-81.1,74.7-112,0,0,43.1-17.2,138.6-4.3,0,0,15.8-123.5,15.8-147.2s-2.9-22.3-10.1-33c-7.9-9.3-30.9-20.8-57.4-20.8h-25.8s0,0,0,0Z"/>
</svg>